<svg width="20" height="20" viewBox="0 0 20 20" fill="none" xmlns="http://www.w3.org/2000/svg">
<g clip-path="url(#clip0)">
<path d="M15.8351 15.7922C15.6984 15.7055 15.5174 15.7459 15.4308 15.8827C14.6991 17.0358 13.4482 17.7242 12.0845 17.7242H4.54559C2.36221 17.7242 0.585938 15.9478 0.585938 13.7644V6.74326C0.585938 6.58151 0.454712 6.45029 0.292969 6.45029C0.131226 6.45029 0 6.58151 0 6.74326V13.7644C0 16.271 2.03918 18.3102 4.54559 18.3102H12.0845C13.6499 18.3102 15.0859 17.5199 15.9254 16.1965C16.0121 16.06 15.9717 15.8788 15.8351 15.7922ZM13.2594 8.00684L11.0257 10.2407C10.9113 10.3552 10.9113 10.5407 11.0257 10.655C11.0828 10.7122 11.1578 10.7409 11.2328 10.7409C11.3077 10.7409 11.3828 10.7122 11.44 10.655L13.6737 8.42126C13.7881 8.30682 13.7881 8.12128 13.6737 8.00684C13.5594 7.89255 13.3739 7.89255 13.2594 8.00684V8.00684ZM19.5761 3.1257L18.555 2.10458C17.9898 1.53925 17.07 1.53925 16.5048 2.10458L15.4448 3.16461C14.5836 2.21735 13.3766 1.67993 12.0845 1.67993H4.54559C3.49991 1.67993 2.47894 2.04385 1.67068 2.70456C0.873871 3.3558 0.316467 4.26569 0.101471 5.26636C0.0674438 5.42459 0.168152 5.58038 0.326385 5.61441C0.347137 5.61868 0.367889 5.62097 0.388184 5.62097C0.523376 5.62097 0.644836 5.52698 0.674286 5.3895C0.861664 4.51822 1.34705 3.72583 2.04147 3.1582C2.74536 2.58279 3.63464 2.26587 4.54559 2.26587H12.0845C13.2191 2.26587 14.2786 2.74164 15.0299 3.5795L11.9144 6.69504H3.74466C3.58276 6.69504 3.45154 6.82611 3.45154 6.98801C3.45154 7.14975 3.58276 7.28098 3.74466 7.28098H11.3284L9.92371 8.68555H3.74466C3.58276 8.68555 3.45154 8.81677 3.45154 8.97867C3.45154 9.14041 3.58276 9.27164 3.74466 9.27164H9.33777L7.52045 11.089C6.99387 11.6155 6.56296 12.2228 6.23993 12.8939L5.40604 14.6263C5.17532 15.1058 5.26932 15.6588 5.6456 16.0351C5.88486 16.2744 6.19568 16.3995 6.51367 16.3995C6.69556 16.3995 6.87988 16.3584 7.05429 16.2745L7.89474 15.87C7.8949 15.8698 7.8952 15.8698 7.89536 15.8697L8.78677 15.4408C9.4577 15.1177 10.065 14.6868 10.5917 14.1602L16.0443 8.70767V13.7644C16.0443 14.0853 16.0059 14.4044 15.93 14.7129C15.8914 14.8701 15.9875 15.0286 16.1447 15.0672C16.1682 15.073 16.1917 15.0758 16.2148 15.0758C16.3466 15.0758 16.4662 14.9864 16.499 14.8527C16.5862 14.4985 16.6302 14.1323 16.6302 13.7644V8.12173L17.4446 7.30737C17.4448 7.30722 17.4448 7.30722 17.4448 7.30707C17.4449 7.30707 17.4449 7.30707 17.4449 7.30692L19.5761 5.17587C20.1413 4.61053 20.1413 3.69089 19.5761 3.1257V3.1257ZM6.80023 15.7466C6.49445 15.8938 6.21735 15.7781 6.05988 15.6208C5.90256 15.4633 5.7869 15.1862 5.93414 14.8805L6.18134 14.3667C6.38763 14.5316 6.58783 14.7105 6.77902 14.9017C6.97021 15.0929 7.14905 15.2931 7.314 15.4994L6.80023 15.7466ZM8.53256 14.9128L7.85461 15.239C7.65366 14.9784 7.43225 14.7262 7.1933 14.4874C6.95435 14.2484 6.70212 14.0269 6.44165 13.8261L6.76788 13.1481C6.9931 12.6805 7.2757 12.2469 7.61093 11.8542L9.82651 14.0698C9.43375 14.4048 9.00024 14.6876 8.53256 14.9128ZM10.2544 13.6689L8.01178 11.4263L14.5807 4.85727L16.8233 7.09985L10.2544 13.6689ZM17.2377 6.68558L14.9951 4.44299L15.7184 3.71973L17.9611 5.96231L17.2377 6.68558ZM19.1618 4.76144L18.3754 5.54788L16.1328 3.3053L16.9191 2.51886C17.0876 2.3504 17.3087 2.26633 17.5299 2.26633C17.751 2.26633 17.9723 2.3504 18.1406 2.51886L19.1617 3.53998C19.4984 3.87674 19.4984 4.42468 19.1618 4.76144V4.76144ZM3.74466 5.29031H12.8856C13.0473 5.29031 13.1786 5.15924 13.1786 4.99734C13.1786 4.83545 13.0473 4.70438 12.8856 4.70438H3.74466C3.58276 4.70438 3.45154 4.83545 3.45154 4.99734C3.45154 5.15924 3.58276 5.29031 3.74466 5.29031Z" fill="#1FC7D3"/>
</g>
<defs>
<clipPath id="clip0">
<rect width="20" height="20" fill="white"/>
</clipPath>
</defs>
</svg>
