<svg width="20" height="20" viewBox="0 0 20 20" fill="none" xmlns="http://www.w3.org/2000/svg">
<path d="M7.19273 16.6665C4.12228 16.6665 0.859375 15.8488 0.859375 14.3333V12.3332C0.859375 12.149 1.00834 12 1.19259 12C1.37684 12 1.52599 12.149 1.52599 12.3332V14.3333C1.52599 15.0292 3.68187 15.9999 7.19273 15.9999C7.83741 15.9999 8.4697 15.9654 9.07185 15.8977C9.25323 15.8774 9.41994 16.009 9.44035 16.192C9.46094 16.3749 9.32915 16.5395 9.14623 16.5605C8.51948 16.6306 7.86221 16.6665 7.19273 16.6665Z" fill="#1FC7D3"/>
<path d="M7.19273 14.6665C4.12228 14.6665 0.859375 13.8488 0.859375 12.333V10.333C0.859375 10.1487 1.00834 9.99976 1.19259 9.99976C1.37684 9.99976 1.52599 10.1487 1.52599 10.333V12.333C1.52599 13.029 3.68187 13.9997 7.19273 13.9997C7.70275 13.9997 8.20839 13.9779 8.69534 13.9354C8.88378 13.9161 9.04076 14.0552 9.05659 14.2381C9.0728 14.4216 8.937 14.5835 8.75389 14.5993C8.2473 14.644 7.72202 14.6665 7.19273 14.6665Z" fill="#1FC7D3"/>
<path d="M13.1928 10.0003C13.0085 10.0003 12.8594 9.85112 12.8594 9.66687V8.33365C12.8594 8.1494 13.0085 8.00024 13.1928 8.00024C13.377 8.00024 13.5262 8.1494 13.5262 8.33365V9.66687C13.5262 9.85112 13.377 10.0003 13.1928 10.0003V10.0003Z" fill="#1FC7D3"/>
<path d="M7.19273 12.667C4.12228 12.667 0.859375 11.8493 0.859375 10.3335V8.33365C0.859375 8.1494 1.00834 8.00024 1.19259 8.00024C1.37684 8.00024 1.52599 8.1494 1.52599 8.33365V10.3335C1.52599 11.0295 3.68187 12.0003 7.19273 12.0003C7.92896 12.0003 8.6467 11.9557 9.32667 11.8674C9.50958 11.842 9.67667 11.9723 9.70013 12.1548C9.72378 12.3374 9.59522 12.5048 9.41269 12.5281C8.70449 12.6204 7.95738 12.667 7.19273 12.667Z" fill="#1FC7D3"/>
<path d="M7.19273 10.6667C4.12228 10.6667 0.859375 9.84903 0.859375 8.33345V6.3334C0.859375 6.14915 1.00834 6 1.19259 6C1.37684 6 1.52599 6.14915 1.52599 6.3334V8.33345C1.52599 9.02944 3.68187 10.0001 7.19273 10.0001C10.7034 10.0001 12.8593 9.02944 12.8593 8.33345V6.3334C12.8593 6.14915 13.0084 6 13.1927 6C13.3769 6 13.5261 6.14915 13.5261 6.3334V8.33345C13.5261 9.84903 10.263 10.6667 7.19273 10.6667V10.6667Z" fill="#1FC7D3"/>
<path d="M7.19273 8.66676C4.12228 8.66676 0.859375 7.84908 0.859375 6.3335V4.33346C0.859375 4.14921 1.00834 4.00024 1.19259 4.00024C1.37684 4.00024 1.52599 4.14921 1.52599 4.33346V6.3335C1.52599 7.02949 3.68187 8.00014 7.19273 8.00014C10.7034 8.00014 12.8593 7.02949 12.8593 6.3335V4.33346C12.8593 4.14921 13.0084 4.00024 13.1927 4.00024C13.3769 4.00024 13.5261 4.14921 13.5261 4.33346V6.3335C13.5261 7.84908 10.263 8.66676 7.19273 8.66676V8.66676Z" fill="#1FC7D3"/>
<path d="M7.19273 6.66671C4.12228 6.66671 0.859375 5.84903 0.859375 4.33326V2.33321C0.859375 2.14896 1.00834 2 1.19259 2C1.37684 2 1.52599 2.14896 1.52599 2.33321V4.33326C1.52599 5.02925 3.68187 5.9999 7.19273 5.9999C10.7034 5.9999 12.8593 5.02925 12.8593 4.33326V2.33321C12.8593 2.14896 13.0084 2 13.1927 2C13.3769 2 13.5261 2.14896 13.5261 2.33321V4.33326C13.5261 5.84903 10.263 6.66671 7.19273 6.66671V6.66671Z" fill="#1FC7D3"/>
<path d="M7.19273 4.66671C4.12228 4.66671 0.859375 3.84903 0.859375 2.33326C0.859375 0.81768 4.12228 0 7.19273 0C10.263 0 13.5261 0.81768 13.5261 2.33326C13.5261 3.84903 10.263 4.66671 7.19273 4.66671V4.66671ZM7.19273 0.666618C3.68187 0.666618 1.52599 1.63727 1.52599 2.33326C1.52599 3.02925 3.68187 4.00009 7.19273 4.00009C10.7034 4.00009 12.8593 3.02925 12.8593 2.33326C12.8593 1.63727 10.7034 0.666618 7.19273 0.666618Z" fill="#1FC7D3"/>
<path d="M13.8592 19.9999C10.9185 19.9999 8.52588 17.6073 8.52588 14.6666C8.52588 11.7258 10.9185 9.33325 13.8592 9.33325C16.8 9.33325 19.1925 11.7258 19.1925 14.6666C19.1925 17.6073 16.8 19.9999 13.8592 19.9999ZM13.8592 9.99987C11.286 9.99987 9.1925 12.0932 9.1925 14.6666C9.1925 17.2398 11.286 19.3331 13.8592 19.3331C16.4324 19.3331 18.5259 17.2398 18.5259 14.6666C18.5259 12.0932 16.4324 9.99987 13.8592 9.99987V9.99987Z" fill="#1FC7D3"/>
<path d="M13.8592 19C11.4699 19 9.52588 17.0561 9.52588 14.6667C9.52588 12.2774 11.4699 10.3333 13.8592 10.3333C16.2485 10.3333 18.1925 12.2774 18.1925 14.6667C18.1925 17.0561 16.2485 19 13.8592 19V19ZM13.8592 11.0001C11.8374 11.0001 10.1925 12.6448 10.1925 14.6667C10.1925 16.6885 11.8374 18.3332 13.8592 18.3332C15.881 18.3332 17.5259 16.6885 17.5259 14.6667C17.5259 12.6448 15.881 11.0001 13.8592 11.0001V11.0001Z" fill="#1FC7D3"/>
<path d="M12.7808 12.8245C12.7808 12.7892 12.8042 12.7661 12.8391 12.7661H14.3137C15.1531 12.7661 15.5493 13.1857 15.5493 13.8213C15.5493 14.2701 15.3397 14.5262 15.089 14.6603V14.6721C15.3339 14.7656 15.6193 15.0803 15.6193 15.564C15.6193 16.3508 15.1239 16.7298 14.2553 16.7298H12.8391C12.8042 16.7298 12.7808 16.7063 12.7808 16.6714V12.8245ZM14.2963 14.4156C14.646 14.4156 14.8619 14.2058 14.8619 13.897C14.8619 13.5823 14.646 13.3723 14.2963 13.3723H13.5035C13.4804 13.3723 13.4685 13.3839 13.4685 13.407V14.3807C13.4685 14.4038 13.4804 14.4156 13.5035 14.4156H14.2963ZM13.5035 16.1234H14.3312C14.7159 16.1234 14.9315 15.9018 14.9315 15.5697C14.9315 15.2432 14.7159 15.0216 14.3312 15.0216H13.5035C13.4804 15.0216 13.4685 15.0334 13.4685 15.0568V16.0883C13.4685 16.1118 13.4804 16.1234 13.5035 16.1234V16.1234Z" fill="#1FC7D3"/>
<path d="M13.8591 13.3332C13.6748 13.3332 13.5259 13.1841 13.5259 12.9998V12.3332C13.5259 12.149 13.6748 12 13.8591 12C14.0434 12 14.1925 12.149 14.1925 12.3332V12.9998C14.1925 13.1841 14.0434 13.3332 13.8591 13.3332Z" fill="#1FC7D3"/>
<path d="M13.8591 17.3338C13.6748 17.3338 13.5259 17.1846 13.5259 17.0004V16.667C13.5259 16.4827 13.6748 16.3337 13.8591 16.3337C14.0434 16.3337 14.1925 16.4827 14.1925 16.667V17.0004C14.1925 17.1846 14.0434 17.3338 13.8591 17.3338Z" fill="#1FC7D3"/>
</svg>
