<svg width="20" height="20" viewBox="0 0 20 20" fill="none" xmlns="http://www.w3.org/2000/svg">
<g clip-path="url(#clip0)">
<path d="M19.8353 19.443C19.8057 19.4285 16.8495 17.9444 14.327 14.3598C14.2337 14.2271 14.0506 14.1953 13.9181 14.2886C13.7855 14.3819 13.7536 14.565 13.8469 14.6976C15.5966 17.184 17.5204 18.6792 18.6353 19.4128H1.35925C1.84574 19.0917 2.48819 18.6244 3.20577 17.9912C3.32733 17.884 3.33894 17.6985 3.23167 17.5769C3.12444 17.4554 2.93894 17.4437 2.81733 17.551C1.34109 18.8535 0.174254 19.4374 0.162848 19.443C0.0404263 19.5033 -0.024261 19.6401 0.00671547 19.773C0.037692 19.9058 0.156129 19.9999 0.292574 19.9999H19.7055C19.8419 19.9999 19.9604 19.9058 19.9913 19.773C20.0224 19.6401 19.9577 19.5034 19.8353 19.443V19.443Z" fill="#5DD1D9"/>
<path d="M9.70654 14.0675V16.7505C9.70654 16.9126 9.83795 17.0441 10.0001 17.0441C10.1622 17.0441 10.2937 16.9127 10.2937 16.7505V14.0675C10.2937 13.9054 10.1622 13.7739 10.0001 13.7739C9.83799 13.7739 9.70654 13.9053 9.70654 14.0675Z" fill="#5DD1D9"/>
<path d="M11.6675 13.9203C11.5116 13.9649 11.4214 14.1274 11.466 14.2833C11.4889 14.3635 12.0508 16.2659 14.0662 17.8316C14.2027 17.9376 14.4066 17.9001 14.4967 17.753C14.5739 17.6272 14.5428 17.4585 14.4264 17.368C12.5764 15.9308 12.0393 14.1519 12.0304 14.1216C11.9857 13.9659 11.8232 13.8757 11.6675 13.9203V13.9203Z" fill="#5DD1D9"/>
<path d="M7.46244 15.0105C6.8324 17.0704 5.30587 18.1525 5.29056 18.1632C5.16954 18.2472 5.12943 18.4137 5.19939 18.5434C5.2813 18.6952 5.48283 18.7439 5.6249 18.6457C5.69427 18.5978 7.33185 17.4446 8.0238 15.1822C8.07122 15.0272 7.984 14.8631 7.82896 14.8157C7.67384 14.7682 7.50986 14.8555 7.46244 15.0105Z" fill="#5DD1D9"/>
<path d="M5.63629 6.59012C5.9798 6.59012 6.32023 6.51805 6.63176 6.38094C7.05379 6.65395 7.5593 6.80984 8.09898 6.80984C8.31465 6.80984 8.52652 6.78488 8.73254 6.73531V8.76816C8.48098 8.85613 8.27848 9.05449 8.19254 9.31621C7.25195 12.1808 5.72605 14.6861 3.65727 16.7625C3.55059 16.8695 3.54383 17.0461 3.64238 17.1608C3.75238 17.2887 3.95395 17.2964 4.07312 17.1768C5.26391 15.9817 6.27996 14.6491 7.11414 13.1917C7.96625 13.0137 8.45539 12.4748 8.78484 12.1115C8.84266 12.0477 8.91367 11.9694 8.97141 11.9136C8.99941 11.982 9.02957 12.0674 9.05289 12.1333C9.19852 12.5455 9.41859 13.1685 10.0002 13.1685C10.5817 13.1685 10.8018 12.5455 10.9474 12.1333C10.9707 12.0674 11.0009 11.982 11.0289 11.9136C11.0866 11.9694 11.1577 12.0477 11.2154 12.1115C11.5454 12.4753 12.0354 13.0151 12.8896 13.1924C12.9878 13.3638 13.0884 13.5336 13.1915 13.7014C13.2764 13.8395 13.4572 13.8826 13.5953 13.7977C13.7334 13.7129 13.7766 13.5321 13.6917 13.3939C12.9153 12.1307 12.2814 10.7588 11.8078 9.31625C11.7218 9.05457 11.5193 8.85617 11.2678 8.7682V6.97109C11.5893 6.90305 11.8876 6.77285 12.1488 6.59242C12.5756 6.81578 13.0524 6.93305 13.5399 6.93305C15.166 6.93305 16.489 5.64152 16.489 4.05402C16.489 2.46652 15.1661 1.175 13.5399 1.175C13.2933 1.175 13.0477 1.20531 12.8085 1.26504C12.5381 1.16293 12.2447 1.10633 11.9379 1.10633C11.5878 1.10633 11.2444 1.17996 10.9293 1.32121C10.4648 0.509961 9.58973 0.000976562 8.61977 0.000976562C7.40461 0.000976562 6.37871 0.804727 6.06844 1.89617C5.92613 1.87098 5.78164 1.85789 5.63617 1.85789C4.30051 1.85789 3.21387 2.91934 3.21387 4.22398C3.21398 5.52867 4.30062 6.59012 5.63629 6.59012V6.59012ZM12.4691 12.4179C12.1088 12.2212 11.8544 11.942 11.6504 11.7171C11.4052 11.4466 11.1734 11.1912 10.8545 11.28C10.6014 11.3504 10.5052 11.6226 10.3939 11.9378C10.3033 12.1941 10.1665 12.5814 10.0002 12.5814C9.83387 12.5814 9.69707 12.1941 9.60652 11.9378C9.4952 11.6226 9.39902 11.3504 9.1459 11.28C8.82699 11.1914 8.59527 11.4467 8.35 11.7171C8.14676 11.9412 7.89348 12.2191 7.53531 12.4157C8.01078 11.4894 8.41641 10.5163 8.75031 9.49937C8.78848 9.38316 8.8993 9.30508 9.02609 9.30508H10.9743C11.1011 9.30508 11.212 9.38316 11.2501 9.49934C11.5818 10.5098 11.9902 11.4867 12.4691 12.4179V12.4179ZM15.902 4.05398C15.902 5.31777 14.8423 6.3459 13.54 6.3459C13.2214 6.3459 12.9088 6.28352 12.6189 6.16414C12.7569 5.99977 12.8741 5.81625 12.9645 5.6157C13.8166 5.22711 14.3603 4.39887 14.3603 3.47246C14.3603 2.80121 14.0722 2.19488 13.6111 1.76383C14.8806 1.80051 15.902 2.81332 15.902 4.05398V4.05398ZM5.63629 2.44496C5.75027 2.44496 5.86344 2.45543 5.97477 2.47566C5.97176 2.54426 5.97105 2.6127 5.97391 2.68129C5.78937 2.92297 5.65117 3.19121 5.56234 3.4802C5.51473 3.63516 5.60172 3.79941 5.75668 3.84703C5.91168 3.89457 6.0759 3.80766 6.12352 3.6527C6.20086 3.40109 6.32719 3.16953 6.49902 2.96449C6.5925 2.85297 6.55898 2.7198 6.55898 2.58684C6.55898 1.48473 7.48351 0.588086 8.61988 0.588086C9.4623 0.588086 10.2118 1.07742 10.5294 1.83473C10.598 1.99836 10.8031 2.06437 10.9543 1.97098C11.2484 1.78937 11.5886 1.6934 11.938 1.6934C12.9499 1.6934 13.7732 2.49148 13.7732 3.47246C13.7732 4.19816 13.3252 4.84465 12.6318 5.11949C12.5559 5.14961 12.4959 5.20996 12.4664 5.28605C12.224 5.90992 11.6265 6.35828 10.9443 6.42828C10.7946 6.44363 10.6807 6.56977 10.6807 6.72031V8.71801H9.31961V6.33148C9.31961 6.12578 9.10316 5.98109 8.91297 6.06062C8.65527 6.1682 8.38137 6.22277 8.09894 6.22277C7.13144 6.22277 6.30531 5.585 6.08992 4.67187C6.05269 4.5141 5.89461 4.41645 5.7368 4.45355C5.57902 4.49078 5.48129 4.64887 5.51848 4.80668C5.62094 5.24094 5.82977 5.62668 6.11437 5.94113C5.95906 5.98172 5.7982 6.00305 5.63625 6.00305C4.6243 6.00305 3.80102 5.205 3.80102 4.22402C3.80105 3.24301 4.62434 2.44496 5.63629 2.44496V2.44496Z" fill="#5DD1D9"/>
</g>
<defs>
<clipPath id="clip0">
<rect width="20" height="20" fill="white"/>
</clipPath>
</defs>
</svg>
