<svg width="20" height="20" viewBox="0 0 20 20" fill="none" xmlns="http://www.w3.org/2000/svg">
<g clip-path="url(#clip0)">
<path d="M19.6478 17.9717H17.1831C16.9886 17.9717 16.8309 17.8143 16.8309 17.6197C16.8309 15.872 15.4092 14.4505 13.6619 14.4505C11.9144 14.4505 10.4927 15.872 10.4927 17.6197C10.4927 17.8143 10.335 17.9717 10.1405 17.9717H5.91518C5.72075 17.9717 5.56299 17.8143 5.56299 17.6197C5.56299 17.4251 5.72075 17.2675 5.91518 17.2675H9.80426C9.98277 15.296 11.6446 13.7463 13.6619 13.7463C15.679 13.7463 17.3408 15.296 17.5193 17.2675H19.6478C19.8423 17.2675 20 17.4251 20 17.6197C20 17.8143 19.8423 17.9717 19.6478 17.9717V17.9717Z" fill="#1FC7D3"/>
<path d="M12.6465 15.977C12.6465 15.9478 12.6658 15.9285 12.6948 15.9285H13.9197C14.6168 15.9285 14.946 16.2768 14.946 16.8045C14.946 17.1773 14.7718 17.3902 14.5636 17.5017V17.5113C14.7669 17.5889 15.0041 17.8502 15.0041 18.252C15.0041 18.9056 14.5926 19.2203 13.8711 19.2203H12.6948C12.6658 19.2203 12.6465 19.201 12.6465 19.1718V15.977ZM13.9052 17.2984C14.1957 17.2984 14.3746 17.1241 14.3746 16.8676C14.3746 16.6063 14.1957 16.432 13.9052 16.432H13.2467C13.2274 16.432 13.2177 16.4414 13.2177 16.4608V17.2696C13.2177 17.2889 13.2274 17.2984 13.2467 17.2984H13.9052ZM13.2467 18.7168H13.9342C14.2539 18.7168 14.4329 18.5329 14.4329 18.2568C14.4329 17.9858 14.2539 17.8019 13.9342 17.8019H13.2467C13.2274 17.8019 13.2177 17.8113 13.2177 17.8311V18.6876C13.2177 18.7074 13.2274 18.7168 13.2467 18.7168V18.7168Z" fill="#1FC7D3"/>
<path d="M13.838 16.2108C13.7409 16.2108 13.6621 16.132 13.6621 16.0347V15.6827C13.6621 15.5854 13.7409 15.5066 13.838 15.5066C13.9353 15.5066 14.0141 15.5854 14.0141 15.6827V16.0347C14.0141 16.132 13.9353 16.2108 13.838 16.2108Z" fill="#1FC7D3"/>
<path d="M13.838 19.732C13.7409 19.732 13.6621 19.6532 13.6621 19.5561V19.2039C13.6621 19.1066 13.7409 19.0278 13.838 19.0278C13.9353 19.0278 14.0141 19.1066 14.0141 19.2039V19.5561C14.0141 19.6534 13.9353 19.732 13.838 19.732Z" fill="#1FC7D3"/>
<path d="M14.7373 4.86363C14.6473 4.86363 14.557 4.82917 14.4883 4.76047C14.3509 4.62285 14.3509 4.40001 14.4883 4.2626L14.8536 3.89711L14.3557 3.39924L13.954 3.8008C13.8165 3.93821 13.5935 3.93821 13.4561 3.8008C13.3187 3.66318 13.3187 3.44034 13.4561 3.30293L14.1069 2.65213C14.2445 2.51472 14.4673 2.51472 14.6047 2.65213L15.6007 3.64807C15.7381 3.78548 15.7381 4.00833 15.6007 4.14594L14.9862 4.76027C14.9175 4.82917 14.8274 4.86363 14.7373 4.86363Z" fill="#1FC7D3"/>
<path d="M1.34701 18.2528C1.25695 18.2528 1.16668 18.2184 1.09797 18.1497L0.102234 17.1537C-0.0353801 17.0163 -0.0353801 16.7935 0.102234 16.6558L9.87305 6.8848C10.0105 6.74738 10.2335 6.74738 10.3709 6.8848L11.3669 7.88054C11.433 7.94663 11.47 8.03609 11.47 8.12958C11.47 8.22307 11.433 8.31253 11.3669 8.37861L1.59584 18.1497C1.52714 18.2184 1.43707 18.2528 1.34701 18.2528ZM0.849139 16.9047L1.34701 17.4025L10.62 8.12958L10.1219 7.6315L0.849139 16.9047Z" fill="#1FC7D3"/>
<path d="M17.5262 13.6654C17.3872 13.6654 17.2589 13.583 17.2028 13.4522C16.3689 11.5087 15.1082 9.52488 13.5455 7.69499L12.1147 9.12573C11.9828 9.25771 11.7488 9.25771 11.6169 9.12573L9.12711 6.63578C8.98949 6.49836 8.98949 6.27532 9.12711 6.13791L10.5577 4.70716C8.72696 3.14383 6.74313 1.88314 4.80041 1.05C4.65453 0.987538 4.5685 0.835417 4.59026 0.678258C4.61202 0.5211 4.73593 0.397992 4.89329 0.377441C8.18214 -0.0559544 11.7204 1.26156 14.3557 3.89679C16.9909 6.53221 18.3066 10.0697 17.8754 13.3589C17.8548 13.5161 17.7315 13.6402 17.5746 13.662C17.5583 13.6644 17.5421 13.6654 17.5262 13.6654V13.6654ZM13.5642 6.82638C13.5678 6.82638 13.5717 6.82638 13.5755 6.82658C13.6728 6.82981 13.7645 6.87272 13.8286 6.94586C15.2087 8.51644 16.3745 10.2093 17.2498 11.9048C17.1901 9.23998 15.9758 6.51327 13.8578 4.39486C11.7396 2.27684 9.01246 1.06269 6.34782 1.00285C8.04291 1.8777 9.73559 3.0439 11.3068 4.42407C11.3797 4.48835 11.423 4.57982 11.4261 4.67714C11.4293 4.77446 11.3918 4.86875 11.3231 4.93746L9.87381 6.38694L11.8657 8.37883L13.3152 6.92954C13.3815 6.86346 13.4709 6.82638 13.5642 6.82638V6.82638Z" fill="#1FC7D3"/>
<path d="M11.1971 19.3802H2.39399C2.19955 19.3802 2.04199 19.2226 2.04199 19.028C2.04199 18.8333 2.19955 18.6758 2.39399 18.6758H11.1971C11.3915 18.6758 11.5493 18.8333 11.5493 19.028C11.5493 19.2226 11.3915 19.3802 11.1971 19.3802Z" fill="#1FC7D3"/>
</g>
<defs>
<clipPath id="clip0">
<rect width="20" height="20" fill="white"/>
</clipPath>
</defs>
</svg>
