<svg width="20" height="20" viewBox="0 0 20 20" fill="none" xmlns="http://www.w3.org/2000/svg">
<path d="M9.35476 7.74194H2.58057V8.3871H9.35476V7.74194Z" fill="#1FC7D3"/>
<path d="M18.3871 3.87097H14.1935V0H1.29032V3.90355C0.555161 4.05355 0 4.70516 0 5.48387V16.4516C0 17.341 0.723548 18.0645 1.6129 18.0645H4.51613V19.3548H3.22581V20H16.7742V19.3548H15.4839V18.0645H18.3871C19.2765 18.0645 20 17.341 20 16.4516V5.48387C20 4.59452 19.2765 3.87097 18.3871 3.87097ZM14.5161 6.12903C14.5161 7.01839 13.7926 7.74194 12.9032 7.74194C12.0139 7.74194 11.2903 7.01839 11.2903 6.12903C11.2903 5.23968 12.0139 4.51613 12.9032 4.51613C13.7926 4.51613 14.5161 5.23968 14.5161 6.12903ZM10.9319 10.3226C10.8132 10.2065 10.681 10.1045 10.5387 10.0165L11.6542 8.00871C12.0123 8.24742 12.4416 8.3871 12.9032 8.3871C13.1274 8.3871 13.3439 8.35323 13.5484 8.29194V10.3226H10.9319ZM10.9677 11.9355C10.9677 12.8248 10.2442 13.5484 9.35484 13.5484C8.46548 13.5484 7.74194 12.8248 7.74194 11.9355C7.74194 11.0461 8.46548 10.3226 9.35484 10.3226C10.2442 10.3226 10.9677 11.0461 10.9677 11.9355ZM10.671 6.45161H3.22581V1.93548H12.2581V3.96613C11.3265 4.24452 10.6452 5.10839 10.6452 6.12903C10.6452 6.23871 10.6558 6.34581 10.671 6.45161ZM1.93548 0.645161H13.5484V3.96613C13.3439 3.90484 13.1274 3.87097 12.9032 3.87097V1.29032H2.58065V7.09677H10.8661C10.9465 7.26516 11.0448 7.42355 11.1626 7.56581L9.94452 9.75839C9.75613 9.7071 9.55903 9.67742 9.35484 9.67742C8.74129 9.67742 8.18484 9.92419 7.77774 10.3226H1.93548V0.645161ZM14.8387 19.3548H5.16129V18.0645H14.8387V19.3548ZM19.3548 16.4516C19.3548 16.9852 18.9206 17.4194 18.3871 17.4194H1.6129C1.07935 17.4194 0.645161 16.9852 0.645161 16.4516V16.129H19.3548V16.4516ZM19.3548 15.4839H0.645161V5.48387C0.645161 5.06387 0.915806 4.70903 1.29032 4.57548V10.9677H7.31774C7.17774 11.2616 7.09677 11.589 7.09677 11.9355C7.09677 13.1803 8.10968 14.1935 9.35484 14.1935C10.6 14.1935 11.6129 13.1803 11.6129 11.9355C11.6129 11.589 11.5319 11.2616 11.3919 10.9677H14.1935V8.86677L15.0206 10.1903C14.5161 10.6048 14.1935 11.2332 14.1935 11.9355C14.1935 13.1803 15.2065 14.1935 16.4516 14.1935C17.6968 14.1935 18.7097 13.1803 18.7097 11.9355C18.7097 10.6906 17.6968 9.67742 16.4516 9.67742C16.14 9.67742 15.8429 9.74097 15.5726 9.85548L14.3342 7.87419C14.8387 7.45968 15.1613 6.83129 15.1613 6.12903C15.1613 5.49742 14.9 4.92645 14.4803 4.51613H18.3871C18.9206 4.51613 19.3548 4.95032 19.3548 5.48387V15.4839ZM16.4516 10.3226C17.341 10.3226 18.0645 11.0461 18.0645 11.9355C18.0645 12.8248 17.341 13.5484 16.4516 13.5484C15.5623 13.5484 14.8387 12.8248 14.8387 11.9355C14.8387 11.0461 15.5623 10.3226 16.4516 10.3226Z" fill="#1FC7D3"/>
<path d="M9.35463 9.03223H8.70947V9.67739H9.35463V9.03223Z" fill="#1FC7D3"/>
<path d="M8.06444 9.03223H2.58057V9.67739H8.06444V9.03223Z" fill="#1FC7D3"/>
</svg>
