<svg width="20" height="20" viewBox="0 0 20 20" fill="none" xmlns="http://www.w3.org/2000/svg">
<g clip-path="url(#clip0)">
<path d="M11.0099 19.4498H9.6351C9.06548 19.4498 8.602 18.9864 8.602 18.4167V17.8475C7.86625 17.6701 7.16613 17.379 6.51511 16.9803L6.11051 17.3847C5.72048 17.7755 5.03993 17.7755 4.64972 17.3847L3.67771 16.4127C3.48261 16.2176 3.375 15.9581 3.375 15.6822C3.375 15.4062 3.48261 15.1469 3.6779 14.9519L4.08213 14.5473C3.68325 13.8961 3.39235 13.1962 3.21478 12.4603H2.64571C2.07628 12.4603 1.61279 11.997 1.61279 11.4274V10.0526C1.61279 9.48315 2.07609 9.01966 2.64571 9.01966H3.21478C3.39235 8.28373 3.68325 7.5838 4.08213 6.93259L3.67771 6.52799C3.48261 6.33307 3.375 6.07373 3.375 5.79778C3.375 5.52183 3.48261 5.26231 3.67771 5.0672L4.64991 4.09538C5.03993 3.70462 5.72048 3.70462 6.11088 4.09538L6.51511 4.4998C7.1665 4.1011 7.86625 3.81001 8.602 3.63263V3.06338C8.602 2.49376 9.06548 2.03027 9.6351 2.03027H11.0099C11.5797 2.03027 12.043 2.49376 12.043 3.06338V3.63263C12.1539 3.6594 12.2647 3.68893 12.3741 3.72086C12.5452 3.77051 12.6434 3.94993 12.5936 4.12085C12.5436 4.29196 12.364 4.39034 12.1936 4.34013C12.0162 4.28845 11.8353 4.24378 11.6563 4.20742C11.506 4.17696 11.3979 4.04462 11.3979 3.89123V3.06338C11.3979 2.84945 11.2238 2.67557 11.0099 2.67557H9.6351C9.42136 2.67557 9.24711 2.84945 9.24711 3.06338V3.89123C9.24711 4.04462 9.13913 4.17696 8.98888 4.2076C8.15438 4.37687 7.36677 4.70413 6.64838 5.18017C6.52009 5.26452 6.35046 5.24791 6.24211 5.13919L5.65459 4.55167C5.50821 4.40492 5.25257 4.40492 5.10619 4.55167L4.134 5.52368C4.06072 5.59695 4.0203 5.69441 4.0203 5.79796C4.0203 5.9017 4.06054 5.99861 4.13382 6.07207L4.72134 6.65959C4.82988 6.76794 4.84686 6.93776 4.76232 7.06549C4.28647 7.78407 3.9592 8.57168 3.78975 9.40655C3.75911 9.55661 3.62695 9.66478 3.47357 9.66478H2.64571C2.43197 9.66478 2.25791 9.83865 2.25791 10.0526V11.4274C2.25791 11.6413 2.43178 11.8152 2.64571 11.8152H3.47375C3.62714 11.8152 3.7593 11.9233 3.78975 12.0734C3.95939 12.9083 4.28647 13.6959 4.76232 14.4144C4.84686 14.5424 4.82988 14.712 4.72134 14.8203L4.134 15.4079C4.06072 15.4813 4.0203 15.5782 4.0203 15.682C4.0203 15.7855 4.06072 15.883 4.134 15.9563L5.10619 16.9285C5.25257 17.075 5.50821 17.0756 5.65459 16.9285L6.24211 16.3409C6.35065 16.2326 6.52009 16.2156 6.64838 16.3C7.36696 16.776 8.15457 17.1033 8.98888 17.2725C9.13913 17.3032 9.2473 17.4355 9.2473 17.5889V18.4167C9.2473 18.6305 9.42136 18.8045 9.63529 18.8045H11.0101C11.2238 18.8045 11.398 18.6307 11.398 18.4167V17.5889C11.398 17.4355 11.506 17.3032 11.6563 17.2725C12.4908 17.1033 13.2784 16.776 13.9968 16.3C14.1252 16.2156 14.2945 16.2326 14.403 16.3409L14.9906 16.9285C15.1371 17.0756 15.3928 17.075 15.5388 16.9285L16.5112 15.9563C16.5844 15.883 16.6249 15.7855 16.6249 15.682C16.6249 15.5782 16.5846 15.4813 16.5113 15.4079L15.9238 14.8203C15.8153 14.712 15.7983 14.5424 15.8828 14.4144C16.3587 13.6959 16.686 12.9083 16.8554 12.0734C16.886 11.9233 17.0182 11.8152 17.1716 11.8152H17.9994C18.2134 11.8152 18.3872 11.6413 18.3872 11.4274V10.0526C18.3872 9.83865 18.2134 9.66478 17.9994 9.66478H17.1716C17.0182 9.66478 16.8859 9.55661 16.8554 9.40618C16.7886 9.07688 16.6952 8.74925 16.578 8.43251C16.516 8.26509 16.6012 8.07958 16.7683 8.01775C16.9346 7.95518 17.1208 8.04082 17.1827 8.20805C17.281 8.4733 17.3639 8.74519 17.4302 9.01948H17.9994C18.5689 9.01948 19.0324 9.48296 19.0324 10.0526V11.4274C19.0324 11.9968 18.5691 12.4603 17.9994 12.4603H17.4304C17.2528 13.1962 16.9619 13.8961 16.563 14.5473L16.9674 14.9518C17.1625 15.1469 17.2702 15.406 17.2702 15.682C17.2702 15.9579 17.1625 16.2176 16.9674 16.4125L15.9952 17.3847C15.6052 17.7755 14.9247 17.7755 14.5343 17.3847L14.13 16.9803C13.4787 17.379 12.7789 17.6701 12.0432 17.8475V18.4167C12.043 18.9864 11.5797 19.4498 11.0099 19.4498V19.4498ZM10.3225 13.5089C8.79581 13.5089 7.55357 12.2666 7.55357 10.7402C7.55357 9.21347 8.79581 7.97142 10.3225 7.97142C11.8494 7.97142 13.0914 9.21347 13.0914 10.7402C13.0914 12.2666 11.8494 13.5089 10.3225 13.5089V13.5089ZM10.3225 8.61653C9.1515 8.61653 8.19887 9.56916 8.19887 10.7402C8.19887 11.9111 9.15131 12.8636 10.3225 12.8636C11.4937 12.8636 12.4463 11.9111 12.4463 10.7402C12.4463 9.56916 11.4935 8.61653 10.3225 8.61653Z" fill="#1FC7D3"/>
<path d="M15.9679 8.64368C13.7445 8.64368 11.9355 6.83477 11.9355 4.61148C11.9355 2.38801 13.7445 0.579102 15.9679 0.579102C18.1912 0.579102 20.0002 2.38801 20.0002 4.61148C20.0002 6.83477 18.1912 8.64368 15.9679 8.64368ZM15.9679 1.2244C14.1003 1.2244 12.5807 2.7437 12.5807 4.61148C12.5807 6.47927 14.1003 7.99856 15.9679 7.99856C17.8354 7.99856 19.355 6.47927 19.355 4.61148C19.355 2.7437 17.8354 1.2244 15.9679 1.2244Z" fill="#1FC7D3"/>
<path d="M14.7627 2.82827C14.7627 2.79431 14.7852 2.77197 14.819 2.77197H16.246C17.0585 2.77197 17.4419 3.17787 17.4419 3.7929C17.4419 4.22722 17.2389 4.47511 16.9965 4.60488V4.61632C17.2333 4.70676 17.5096 5.01133 17.5096 5.47943C17.5096 6.24083 17.0301 6.60759 16.1897 6.60759H14.819C14.7852 6.60759 14.7627 6.58489 14.7627 6.55111V2.82827ZM16.2294 4.36806C16.5677 4.36806 16.7765 4.1652 16.7765 3.86618C16.7765 3.56162 16.5677 3.35839 16.2294 3.35839H15.4619C15.4396 3.35839 15.4281 3.36965 15.4281 3.39198V4.33428C15.4281 4.35661 15.4396 4.36806 15.4619 4.36806H16.2294ZM15.4619 6.02099H16.263C16.6355 6.02099 16.8439 5.80632 16.8439 5.48496C16.8439 5.16914 16.6355 4.95447 16.263 4.95447H15.4619C15.4396 4.95447 15.4281 4.96592 15.4281 4.98862V5.98684C15.4281 6.00955 15.4396 6.02099 15.4619 6.02099Z" fill="#1FC7D3"/>
<path d="M15.8065 3.32075C15.6284 3.32075 15.4839 3.17659 15.4839 2.99828V2.35298C15.4839 2.17468 15.6284 2.03052 15.8065 2.03052C15.9847 2.03052 16.129 2.17468 16.129 2.35298V2.99828C16.129 3.17659 15.9847 3.32075 15.8065 3.32075Z" fill="#1FC7D3"/>
<path d="M15.8065 7.19189C15.6284 7.19189 15.4839 7.04754 15.4839 6.86924V6.54677C15.4839 6.36846 15.6284 6.22412 15.8065 6.22412C15.9847 6.22412 16.129 6.36846 16.129 6.54677V6.86924C16.129 7.04754 15.9847 7.19189 15.8065 7.19189Z" fill="#1FC7D3"/>
<path d="M10.3225 10.7403H6.4516C6.35562 10.7403 6.26499 10.6977 6.20371 10.6242L4.68755 8.80478H0.967669C0.789547 8.80478 0.64502 8.66044 0.64502 8.48213C0.64502 8.30383 0.789547 8.15967 0.967669 8.15967H4.83854C4.93434 8.15967 5.02515 8.20212 5.08643 8.27559L6.60259 10.095H10.3225C10.5006 10.095 10.6451 10.2394 10.6451 10.4177C10.6451 10.596 10.5006 10.7403 10.3225 10.7403Z" fill="#1FC7D3"/>
<path d="M6.77407 15.5789H0.967669C0.789547 15.5789 0.64502 15.4345 0.64502 15.2562C0.64502 15.0779 0.789547 14.9337 0.967669 14.9337H6.57472L7.13068 13.8216C7.21042 13.6623 7.40386 13.5977 7.56353 13.6775C7.72301 13.757 7.78743 13.9508 7.70787 14.1103L7.06257 15.4006C7.00794 15.51 6.89645 15.5789 6.77407 15.5789V15.5789Z" fill="#1FC7D3"/>
<path d="M9.03221 14.2886H7.41915C7.24102 14.2886 7.09668 14.1443 7.09668 13.966C7.09668 13.7877 7.24102 13.6433 7.41915 13.6433H9.03221C9.21034 13.6433 9.35468 13.7877 9.35468 13.966C9.35468 14.1443 9.21034 14.2886 9.03221 14.2886Z" fill="#1FC7D3"/>
<path d="M9.03204 14.2888C8.95766 14.2888 8.8829 14.2631 8.82217 14.2109C8.68688 14.095 8.67119 13.8914 8.7871 13.7563L10.7226 11.4983C10.7839 11.4267 10.8734 11.3855 10.9676 11.3855H14.516C14.6941 11.3855 14.8385 11.5298 14.8385 11.7081C14.8385 11.8865 14.6941 12.0306 14.516 12.0306H11.116L9.27699 14.176C9.2133 14.2506 9.12286 14.2888 9.03204 14.2888V14.2888Z" fill="#1FC7D3"/>
<path d="M1.29041 8.48227C1.29041 8.8387 1.00154 9.12757 0.645115 9.12757C0.288871 9.12757 0 8.8387 0 8.48227C0 8.12603 0.288871 7.83716 0.645115 7.83716C1.00154 7.83716 1.29041 8.12603 1.29041 8.48227Z" fill="#1FC7D3"/>
<path d="M1.29041 15.2564C1.29041 15.6129 1.00154 15.9017 0.645115 15.9017C0.288871 15.9017 0 15.6129 0 15.2564C0 14.9002 0.288871 14.6113 0.645115 14.6113C1.00154 14.6113 1.29041 14.9002 1.29041 15.2564Z" fill="#1FC7D3"/>
</g>
<defs>
<clipPath id="clip0">
<rect width="20" height="20" fill="white"/>
</clipPath>
</defs>
</svg>
