<svg width="20" height="20" viewBox="0 0 20 20" fill="none" xmlns="http://www.w3.org/2000/svg">
<g clip-path="url(#clip0)">
<path d="M16.6016 3.04028H3.39844C2.49743 3.04132 1.63363 3.3997 0.996521 4.0368C0.359415 4.67391 0.00103386 5.53772 0 6.43872L0 15.905C0.000330813 16.1846 0.111556 16.4527 0.309276 16.6504C0.506997 16.8481 0.775069 16.9593 1.05469 16.9597H18.9453C19.2249 16.9593 19.493 16.8481 19.6907 16.6504C19.8884 16.4527 19.9997 16.1846 20 15.905V6.43872C19.999 5.53772 19.6406 4.67391 19.0035 4.0368C18.3664 3.3997 17.5026 3.04132 16.6016 3.04028V3.04028ZM16.6016 3.58716C17.3576 3.58803 18.0824 3.88874 18.617 4.42332C19.1515 4.9579 19.4523 5.68271 19.4531 6.43872V8.16278H17.7473V6.61981C17.7473 6.08216 17.7614 5.5445 17.5656 5.03247C17.3542 4.44867 16.9682 3.94407 16.4602 3.58716H16.6016ZM8.4375 11.875H11.5625C11.9664 11.8745 12.3536 11.7139 12.6392 11.4283C12.9248 11.1427 13.0855 10.7554 13.0859 10.3515V10.2722H16.5727C16.6298 10.6009 16.787 10.9039 17.0229 11.1398C17.2589 11.3758 17.5619 11.533 17.8906 11.5901V13.5322C17.5619 13.5893 17.2589 13.7466 17.0229 13.9826C16.787 14.2185 16.6298 14.5216 16.5727 14.8503H3.42734C3.37023 14.5216 3.21296 14.2185 2.97705 13.9826C2.74114 13.7466 2.4381 13.5893 2.10938 13.5322V11.5901C2.43809 11.533 2.74114 11.3758 2.97706 11.1398C3.21298 10.9039 3.37025 10.6009 3.42734 10.2722H6.91406V10.3515C6.91452 10.7554 7.07517 11.1427 7.36077 11.4283C7.64637 11.7139 8.0336 11.8745 8.4375 11.875ZM12.5391 10.3515C12.5388 10.6104 12.4358 10.8587 12.2527 11.0417C12.0696 11.2248 11.8214 11.3278 11.5625 11.3281H8.4375C8.17859 11.3278 7.93036 11.2248 7.74729 11.0417C7.56421 10.8587 7.46123 10.6104 7.46094 10.3515V8.70966H12.5391V10.3515ZM2.79953 8.16278V6.89325H17.2005V8.16278H2.79953ZM17.1172 5.42841C17.1852 5.72945 17.2132 6.03816 17.2005 6.34653H2.79953C2.78663 6.02965 2.8168 5.71249 2.88922 5.40372H17.1108C17.1131 5.41185 17.115 5.42013 17.1172 5.42825V5.42841ZM14.7344 3.58716C15.174 3.58756 15.6056 3.70547 15.9844 3.92868C16.3631 4.15188 16.6754 4.47228 16.8887 4.85669H3.11094C3.32433 4.47223 3.63661 4.15181 4.01545 3.9286C4.3943 3.70539 4.82592 3.5875 5.26563 3.58716H14.7344ZM0.546875 6.43872C0.547743 5.68271 0.848454 4.9579 1.38304 4.42332C1.91762 3.88874 2.64242 3.58803 3.39844 3.58716H3.53984C3.03173 3.94403 2.64576 4.44864 2.43437 5.03247C2.23859 5.54466 2.25266 6.08216 2.25266 6.61981V8.16278H0.546875V6.43872ZM19.4531 15.905C19.453 16.0396 19.3994 16.1687 19.3042 16.2639C19.209 16.3591 19.0799 16.4126 18.9453 16.4128H1.05469C0.920058 16.4126 0.79099 16.3591 0.695793 16.2639C0.600595 16.1687 0.54704 16.0396 0.546875 15.905V8.70966H6.91406V9.72528H3.17703C3.10451 9.72528 3.03496 9.75409 2.98368 9.80537C2.9324 9.85665 2.90359 9.9262 2.90359 9.99872C2.9033 10.2818 2.79073 10.5532 2.59057 10.7534C2.39042 10.9536 2.11902 11.0662 1.83594 11.0665C1.80002 11.0665 1.76446 11.0736 1.73127 11.0873C1.69809 11.101 1.66794 11.1212 1.64254 11.1466C1.61715 11.172 1.59701 11.2021 1.58327 11.2353C1.56954 11.2685 1.56248 11.3041 1.5625 11.34V13.7825C1.5625 13.855 1.59131 13.9245 1.64259 13.9758C1.69387 14.0271 1.76342 14.0559 1.83594 14.0559C2.11902 14.0562 2.39042 14.1689 2.59057 14.369C2.79073 14.5692 2.9033 14.8406 2.90359 15.1237C2.90359 15.1962 2.9324 15.2658 2.98368 15.3171C3.03496 15.3683 3.10451 15.3972 3.17703 15.3972H16.823C16.8955 15.3972 16.965 15.3683 17.0163 15.3171C17.0676 15.2658 17.0964 15.1962 17.0964 15.1237C17.0967 14.8406 17.2093 14.5692 17.4094 14.369C17.6096 14.1689 17.881 14.0562 18.1641 14.0559C18.2366 14.0559 18.3061 14.0271 18.3574 13.9758C18.4087 13.9245 18.4375 13.855 18.4375 13.7825V11.34C18.4375 11.3041 18.4305 11.2685 18.4167 11.2353C18.403 11.2021 18.3829 11.172 18.3575 11.1466C18.3321 11.1212 18.3019 11.101 18.2687 11.0873C18.2355 11.0736 18.2 11.0665 18.1641 11.0665C17.881 11.0662 17.6096 10.9536 17.4094 10.7534C17.2093 10.5532 17.0967 10.2818 17.0964 9.99872C17.0964 9.9262 17.0676 9.85665 17.0163 9.80537C16.965 9.75409 16.8955 9.72528 16.823 9.72528H13.0859V8.70966H19.4531V15.905Z" fill="#1FC7D3"/>
<path d="M9.72643 10.1717V10.5324C9.72643 10.605 9.75523 10.6745 9.80651 10.7258C9.85779 10.7771 9.92734 10.8059 9.99986 10.8059C10.0724 10.8059 10.1419 10.7771 10.1932 10.7258C10.2445 10.6745 10.2733 10.605 10.2733 10.5324V10.1717C10.3668 10.1124 10.4386 10.0244 10.4778 9.92086C10.517 9.81732 10.5216 9.70384 10.4907 9.5975C10.4599 9.49116 10.3954 9.39771 10.3068 9.33121C10.2183 9.26471 10.1106 9.22876 9.99986 9.22876C9.88914 9.22876 9.78142 9.26471 9.69289 9.33121C9.60437 9.39771 9.53983 9.49116 9.50899 9.5975C9.47816 9.70384 9.48268 9.81732 9.5219 9.92086C9.56111 10.0244 9.63288 10.1124 9.72643 10.1717V10.1717Z" fill="#1FC7D3"/>
</g>
<defs>
<clipPath id="clip0">
<rect width="20" height="20" fill="white"/>
</clipPath>
</defs>
</svg>
