<svg width="24" height="24" viewBox="0 0 24 24" fill="none" xmlns="http://www.w3.org/2000/svg">
<g clip-path="url(#clip0)">
<path d="M11.8325 11.5703C13.3869 11.5703 14.7328 11.0128 15.8328 9.91278C16.9324 8.81297 17.4901 7.46729 17.4901 5.91265C17.4901 4.35855 16.9326 3.01269 15.8326 1.91252C14.7326 0.812891 13.3867 0.255371 11.8325 0.255371C10.2778 0.255371 8.93212 0.812891 7.83231 1.9127C6.73251 3.01251 6.1748 4.35837 6.1748 5.91265C6.1748 7.46729 6.73251 8.81315 7.83231 9.91296C8.93248 11.0126 10.2783 11.5703 11.8325 11.5703V11.5703ZM8.80578 2.88598C9.64968 2.04209 10.6396 1.63188 11.8325 1.63188C13.0251 1.63188 14.0152 2.04209 14.8593 2.88598C15.7032 3.73006 16.1136 4.72019 16.1136 5.91265C16.1136 7.10547 15.7032 8.09542 14.8593 8.93949C14.0152 9.78357 13.0251 10.1938 11.8325 10.1938C10.64 10.1938 9.65004 9.78339 8.80578 8.93949C7.9617 8.0956 7.55131 7.10547 7.55131 5.91265C7.55131 4.72019 7.9617 3.73006 8.80578 2.88598Z" fill="#211E34"/>
<path d="M21.7319 18.3174C21.7002 17.8597 21.6361 17.3605 21.5416 16.8332C21.4463 16.302 21.3235 15.7999 21.1766 15.3409C21.0246 14.8666 20.8183 14.3981 20.5629 13.9492C20.2983 13.4833 19.9871 13.0775 19.638 12.7437C19.273 12.3944 18.826 12.1136 18.3092 11.9087C17.7942 11.705 17.2234 11.6017 16.6128 11.6017C16.373 11.6017 16.1411 11.7001 15.6933 11.9917C15.4177 12.1714 15.0953 12.3793 14.7354 12.6093C14.4277 12.8053 14.0109 12.989 13.496 13.1553C12.9937 13.3178 12.4836 13.4003 11.9801 13.4003C11.4768 13.4003 10.9668 13.3178 10.4641 13.1553C9.94979 12.9892 9.53277 12.8055 9.2256 12.6094C8.86916 12.3817 8.54658 12.1738 8.26683 11.9915C7.81935 11.6999 7.58745 11.6016 7.34767 11.6016C6.73692 11.6016 6.16632 11.705 5.65145 11.9089C5.13497 12.1134 4.68784 12.3942 4.32243 12.7438C3.97333 13.0779 3.66222 13.4834 3.39771 13.9492C3.14269 14.3981 2.93624 14.8664 2.78427 15.3411C2.6375 15.8001 2.51474 16.302 2.4194 16.8332C2.32478 17.3597 2.2608 17.8592 2.22908 18.318C2.1979 18.7665 2.18213 19.2334 2.18213 19.705C2.18213 20.9312 2.57191 21.9238 3.34054 22.6559C4.09967 23.3783 5.10396 23.7446 6.32563 23.7446H17.6359C18.8572 23.7446 19.8615 23.3783 20.6208 22.6559C21.3896 21.9244 21.7794 20.9314 21.7794 19.7049C21.7792 19.2316 21.7633 18.7647 21.7319 18.3174V18.3174ZM19.6717 21.6586C19.1701 22.136 18.5042 22.3681 17.6357 22.3681H6.32563C5.45701 22.3681 4.79106 22.136 4.28963 21.6588C3.7977 21.1905 3.55864 20.5513 3.55864 19.705C3.55864 19.2649 3.57315 18.8303 3.60219 18.4131C3.6305 18.0038 3.68839 17.5542 3.77423 17.0764C3.85899 16.6045 3.96688 16.1617 4.09519 15.7608C4.21831 15.3764 4.38623 14.9958 4.59447 14.6291C4.79321 14.2797 5.02188 13.9798 5.27421 13.7383C5.51023 13.5123 5.80772 13.3273 6.15825 13.1886C6.48244 13.0603 6.84678 12.9901 7.24229 12.9795C7.2905 13.0051 7.37634 13.0541 7.51541 13.1447C7.79838 13.3291 8.12454 13.5395 8.48511 13.7698C8.89156 14.029 9.41521 14.263 10.0408 14.465C10.6804 14.6718 11.3328 14.7768 11.9802 14.7768C12.6277 14.7768 13.2802 14.6718 13.9195 14.4651C14.5456 14.2628 15.0691 14.029 15.4761 13.7695C15.8451 13.5336 16.1621 13.3293 16.4451 13.1447C16.5841 13.0542 16.67 13.0051 16.7182 12.9795C17.1139 12.9901 17.4782 13.0603 17.8026 13.1886C18.1529 13.3273 18.4504 13.5125 18.6864 13.7383C18.9388 13.9797 19.1674 14.2795 19.3662 14.6293C19.5746 14.9958 19.7427 15.3766 19.8656 15.7607C19.9941 16.1621 20.1022 16.6047 20.1868 17.0762C20.2724 17.5549 20.3305 18.0047 20.3588 18.4133V18.4137C20.388 18.8293 20.4027 19.2637 20.4029 19.705C20.4027 20.5515 20.1637 21.1905 19.6717 21.6586V21.6586Z" fill="#211E34"/>
</g>
<defs>
<clipPath id="clip0">
<rect width="23.4894" height="23.4894" fill="white" transform="translate(0.255371 0.255371)"/>
</clipPath>
</defs>
</svg>
