<svg width="20" height="20" viewBox="0 0 20 20" fill="none" xmlns="http://www.w3.org/2000/svg">
<path d="M16.0229 2.65308H3.97714C1.78408 2.65308 0 4.44287 0 6.64246V13.3572C0 15.5572 1.78408 17.3465 3.97714 17.3465H16.0229C18.2159 17.3465 20 15.5567 20 13.3572V6.64246C20 4.44287 18.2159 2.65308 16.0229 2.65308ZM19.1837 13.3576C19.1837 15.1074 17.7657 16.5306 16.0229 16.5306H3.97714C2.23429 16.5306 0.816327 15.107 0.816327 13.3576V6.64246C0.816327 4.89308 2.23429 3.4694 3.97714 3.4694H16.0229C17.7657 3.4694 19.1837 4.89308 19.1837 6.64246V13.3576Z" fill="#1FC7D3"/>
<path d="M13.6166 9.8522L7.96145 6.53995C7.83574 6.46648 7.67941 6.46526 7.55247 6.53791C7.42554 6.61057 7.34717 6.74567 7.34717 6.8922V13.5163C7.34717 13.6624 7.42554 13.7979 7.55207 13.8706C7.61492 13.9065 7.68513 13.9244 7.75533 13.9244C7.82676 13.9244 7.89778 13.9057 7.96145 13.8685L13.6166 10.5571C13.7415 10.484 13.8186 10.3498 13.8186 10.2049C13.8186 10.06 13.7419 9.92526 13.6166 9.8522ZM8.16349 12.804V7.60404L12.6027 10.2044L8.16349 12.804Z" fill="#1FC7D3"/>
</svg>
