<svg width="65" height="65" viewBox="0 0 65 65" fill="none" xmlns="http://www.w3.org/2000/svg">
<path fill-rule="evenodd" clip-rule="evenodd" d="M39 44.0227H31.9091C31.4195 44.0227 31.0227 43.6259 31.0227 43.1363V39.8863C31.0227 39.3968 31.4195 39 31.9091 39H32.7955C33.285 39 33.6818 39.3968 33.6818 39.8863V41.3637H36.3409V39H34.5682C34.0787 39 33.6818 38.6032 33.6818 38.1137V36.3409H31.9091C31.4195 36.3409 31.0227 35.9441 31.0227 35.4545V34.5682C31.0227 34.0787 31.4195 33.6818 31.9091 33.6818H33.6818V31.9091C33.6818 31.4195 34.0787 31.0227 34.5682 31.0227H35.4545C35.9441 31.0227 36.3409 31.4195 36.3409 31.9091V36.3409H41.3637V33.6818H39.8863C39.3968 33.6818 39 33.285 39 32.7955V31.9091C39 31.4195 39.3968 31.0227 39.8863 31.0227H46.6818V29.25C46.6818 28.7605 47.0787 28.3637 47.5682 28.3637H48.4545C48.9441 28.3637 49.3409 28.7605 49.3409 29.25V32.7955C49.3409 33.285 48.9441 33.6818 48.4545 33.6818H44.0227V39H46.6818V37.2273C46.6818 36.7377 47.0787 36.3409 47.5682 36.3409H49.3409V34.5682C49.3409 34.0787 49.7377 33.6818 50.2273 33.6818H51.1137C51.6032 33.6818 52 34.0787 52 34.5682V36.3409H54.3637V34.5682C54.3637 34.0787 54.7605 33.6818 55.25 33.6818H56.1363C56.6259 33.6818 57.0227 34.0787 57.0227 34.5682V38.1137C57.0227 38.6032 56.6259 39 56.1363 39H55.25C55.1997 39 55.1503 38.9958 55.1023 38.9878C55.0542 38.9958 55.0049 39 54.9545 39H54.3637V44.0227H56.1363C56.6259 44.0227 57.0227 44.4195 57.0227 44.9091V45.7955C57.0227 46.285 56.6259 46.6818 56.1363 46.6818H54.3637V49.3409H56.1363C56.6259 49.3409 57.0227 49.7377 57.0227 50.2273V51.1137C57.0227 51.6032 56.6259 52 56.1363 52H54.3637V52.2955C54.3637 52.3991 54.3459 52.4985 54.3132 52.5909C54.3459 52.6833 54.3637 52.7827 54.3637 52.8863V53.4773C54.3637 53.5276 54.3594 53.577 54.3514 53.625C54.3594 53.673 54.3637 53.7224 54.3637 53.7727V54.3637H57.0227V52.8863C57.0227 52.3968 57.4195 52 57.9091 52H58.7955C59.285 52 59.6818 52.3968 59.6818 52.8863V54.3637H64.1137C64.6032 54.3637 65 54.7605 65 55.25V56.1363C65 56.1867 64.9958 56.236 64.9877 56.2841C64.9958 56.3321 65 56.3815 65 56.4318V64.1137C65 64.6032 64.6032 65 64.1137 65H50.2273C49.7377 65 49.3409 64.6032 49.3409 64.1137V62.3409H47.5682C47.0787 62.3409 46.6818 61.9441 46.6818 61.4545V60.5682C46.6818 60.0787 47.0787 59.6818 47.5682 59.6818H54.3637V57.0227H52.8863C52.3968 57.0227 52 56.6259 52 56.1363V55.25C52 55.1997 52.0042 55.1503 52.0122 55.1023C52.0042 55.0542 52 55.0049 52 54.9545V54.3637H49.2905C49.3232 54.4561 49.3409 54.5555 49.3409 54.6591V56.1363C49.3409 56.6259 48.9441 57.0227 48.4545 57.0227H46.6818V58.7955C46.6818 59.285 46.285 59.6818 45.7955 59.6818H44.9091C44.4195 59.6818 44.0227 59.285 44.0227 58.7955V54.3637H41.3637V56.1363C41.3637 56.6259 40.9668 57.0227 40.4773 57.0227H39.8863C39.3968 57.0227 39 56.6259 39 56.1363V54.3637H33.6818V58.7955C33.6818 59.285 33.285 59.6818 32.7955 59.6818H31.9091C31.4195 59.6818 31.0227 59.285 31.0227 58.7955V53.4773C31.0227 53.9668 30.6259 54.3637 30.1363 54.3637H29.25C28.7605 54.3637 28.3637 53.9668 28.3637 53.4773V49.3409H26.8863C26.3968 49.3409 26 48.9441 26 48.4545V42.25C26 41.7605 26.3968 41.3637 26.8863 41.3637H27.4773C27.9668 41.3637 28.3637 41.7605 28.3637 42.25V46.6818H38.1137C38.6032 46.6818 39 47.0787 39 47.5682V52H41.3637V46.6314C41.2712 46.664 41.1718 46.6818 41.0682 46.6818H39.8863C39.3968 46.6818 39 46.285 39 45.7955V44.0227ZM44.0227 52H52V44.0227H44.0227V52ZM38.1137 65H34.5682C34.0787 65 33.6818 64.6032 33.6818 64.1137V63.2273C33.6818 62.7377 34.0787 62.3409 34.5682 62.3409H36.3409V57.9091C36.3409 57.4195 36.7377 57.0227 37.2273 57.0227H38.1137C38.6032 57.0227 39 57.4195 39 57.9091V64.1137C39 64.6032 38.6032 65 38.1137 65ZM31.0227 28.3637V32.7955C31.0227 33.285 30.6259 33.6818 30.1363 33.6818H29.25C28.7605 33.6818 28.3637 33.285 28.3637 32.7955V31.0227H26.2955C26.1919 31.0227 26.0924 31.005 26 30.9723V32.7955C26 33.285 25.6032 33.6818 25.1137 33.6818H23.3409V35.4545C23.3409 35.9441 22.9441 36.3409 22.4545 36.3409H18.9091C18.4195 36.3409 18.0227 35.9441 18.0227 35.4545V33.6818H16.25C15.7605 33.6818 15.3637 33.285 15.3637 32.7955V31.9091C15.3637 31.4195 15.7605 31.0227 16.25 31.0227H23.3409V28.3637H21.5682C21.0787 28.3637 20.6818 27.9668 20.6818 27.4773V26.8863C20.6818 26.3968 21.0787 26 21.5682 26H23.3409V23.3409H20.6818V25.1137C20.6818 25.6032 20.285 26 19.7955 26H18.9091C18.4195 26 18.0227 25.6032 18.0227 25.1137V23.3409H16.25C15.7605 23.3409 15.3637 22.9441 15.3637 22.4545V21.5682C15.3637 21.0787 15.7605 20.6818 16.25 20.6818H27.4773C27.9668 20.6818 28.3637 21.0787 28.3637 21.5682V22.4545C28.3637 22.9441 27.9668 23.3409 27.4773 23.3409H26V28.4141C26.0924 28.3814 26.1919 28.3637 26.2955 28.3637H28.3637V26.8863C28.3637 26.3968 28.7605 26 29.25 26H33.6818V23.3409H33.0909C33.0406 23.3409 32.9912 23.3367 32.9432 23.3287C32.8952 23.3367 32.8458 23.3409 32.7955 23.3409H31.9091C31.4195 23.3409 31.0227 22.9441 31.0227 22.4545V16.25C31.0227 15.7605 31.4195 15.3637 31.9091 15.3637H32.7955C33.285 15.3637 33.6818 15.7605 33.6818 16.25V20.6818H36.3409V15.3637H34.5682C34.0787 15.3637 33.6818 14.9668 33.6818 14.4773V13H31.9091C31.4195 13 31.0227 12.6032 31.0227 12.1137V11.2273C31.0227 10.7377 31.4195 10.3409 31.9091 10.3409H33.6818V8.5682C33.6818 8.07867 34.0787 7.6818 34.5682 7.6818H36.3409V5.02273H31.0227V9.45454C31.0227 9.94406 30.6259 10.3409 30.1363 10.3409H29.25C28.7605 10.3409 28.3637 9.94406 28.3637 9.45454V7.6818H26.2955C26.1919 7.6818 26.0924 7.66403 26 7.63137V9.45454C26 9.94406 25.6032 10.3409 25.1137 10.3409H21.5682C21.0787 10.3409 20.6818 9.94406 20.6818 9.45454V8.5682C20.6818 8.07867 21.0787 7.6818 21.5682 7.6818H23.3409V5.02273H21.5682C21.0787 5.02273 20.6818 4.62587 20.6818 4.13634V3.25C20.6818 2.76048 21.0787 2.36366 21.5682 2.36366H23.3409V0.886341C23.3409 0.396816 23.7377 0 24.2273 0H25.1137C25.6032 0 26 0.396816 26 0.886341V5.07317C26.0924 5.0405 26.1919 5.02273 26.2955 5.02273H28.3637V3.25C28.3637 2.76048 28.7605 2.36366 29.25 2.36366H33.6818V0.886341C33.6818 0.396816 34.0787 0 34.5682 0H35.4545C35.9441 0 36.3409 0.396816 36.3409 0.886341V2.36366H41.3637V0.886341C41.3637 0.396816 41.7605 0 42.25 0H43.1363C43.6259 0 44.0227 0.396816 44.0227 0.886341V4.13634C44.0227 4.62587 43.6259 5.02273 43.1363 5.02273H39V7.6818H40.4773C40.9668 7.6818 41.3637 8.07867 41.3637 8.5682V9.45454C41.3637 9.94406 40.9668 10.3409 40.4773 10.3409H36.3409V13H40.4773C40.9668 13 41.3637 13.3968 41.3637 13.8863V14.4773C41.3637 14.9668 40.9668 15.3637 40.4773 15.3637H39V22.4545C39 22.9441 38.6032 23.3409 38.1137 23.3409H36.3409V26H40.4773C40.9668 26 41.3637 26.3968 41.3637 26.8863V27.4773C41.3637 27.9668 40.9668 28.3637 40.4773 28.3637H31.0227ZM62.3409 39H61.75C61.6997 39 61.6503 38.9958 61.6023 38.9878C61.5542 38.9958 61.5049 39 61.4545 39H60.5682C60.0787 39 59.6818 38.6032 59.6818 38.1137V33.6818H57.9091C57.4195 33.6818 57.0227 33.285 57.0227 32.7955V31.9091C57.0227 31.4195 57.4195 31.0227 57.9091 31.0227H62.3409V28.3637H61.75C61.6997 28.3637 61.6503 28.3594 61.6023 28.3514C61.5542 28.3594 61.5049 28.3637 61.4545 28.3637H60.5682C60.0787 28.3637 59.6818 27.9668 59.6818 27.4773V21.5682C59.6818 21.0787 60.0787 20.6818 60.5682 20.6818H61.4545C61.9441 20.6818 62.3409 21.0787 62.3409 21.5682V26H64.1137C64.6032 26 65 26.3968 65 26.8863V32.7955C65 33.285 64.6032 33.6818 64.1137 33.6818H62.3409V36.3409H64.1137C64.6032 36.3409 65 36.7377 65 37.2273V40.4773C65 40.9668 64.6032 41.3637 64.1137 41.3637H63.2273C62.7377 41.3637 62.3409 40.9668 62.3409 40.4773V39ZM57.0227 59.6818V62.3409H62.3409V57.0227H59.6818V58.7955C59.6818 59.285 59.285 59.6818 58.7955 59.6818H57.0227ZM65 47.5682V51.1137C65 51.6032 64.6032 52 64.1137 52H63.2273C62.7377 52 62.3409 51.6032 62.3409 51.1137V49.3409H57.9091C57.4195 49.3409 57.0227 48.9441 57.0227 48.4545V47.5682C57.0227 47.0787 57.4195 46.6818 57.9091 46.6818H64.1137C64.6032 46.6818 65 47.0787 65 47.5682ZM36.3409 52V49.3409H31.0227V52.8863C31.0227 52.3968 31.4195 52 31.9091 52H36.3409ZM23.3409 54.3637H25.1137C25.6032 54.3637 26 54.7605 26 55.25V56.1363C26 56.6259 25.6032 57.0227 25.1137 57.0227H23.3409V64.1137C23.3409 64.6032 22.9441 65 22.4545 65H21.5682C21.0787 65 20.6818 64.6032 20.6818 64.1137V52.8863C20.6818 52.3968 21.0787 52 21.5682 52H22.4545C22.9441 52 23.3409 52.3968 23.3409 52.8863V54.3637ZM27.4773 39H24.2273C23.7377 39 23.3409 38.6032 23.3409 38.1137V37.2273C23.3409 36.7377 23.7377 36.3409 24.2273 36.3409H26V34.5682C26 34.0787 26.3968 33.6818 26.8863 33.6818H27.4773C27.9668 33.6818 28.3637 34.0787 28.3637 34.5682V38.1137C28.3637 38.6032 27.9668 39 27.4773 39ZM5.90907 31.0227H9.45454C9.94406 31.0227 10.3409 31.4195 10.3409 31.9091V35.4545C10.3409 35.9441 9.94406 36.3409 9.45454 36.3409H7.6818V40.4773C7.6818 40.9668 7.28499 41.3637 6.79546 41.3637H5.90907C5.41955 41.3637 5.02273 40.9668 5.02273 40.4773V31.9091C5.02273 31.4195 5.41955 31.0227 5.90907 31.0227ZM7.6818 23.3409V25.1137C7.6818 25.6032 7.28499 26 6.79546 26H0.886341C0.396816 26 0 25.6032 0 25.1137V21.5682C0 21.0787 0.396816 20.6818 0.886341 20.6818H12.1137C12.6032 20.6818 13 21.0787 13 21.5682V22.4545C13 22.9441 12.6032 23.3409 12.1137 23.3409H7.6818ZM3.54546 2.65907C3.05594 2.65907 2.65907 3.05594 2.65907 3.54546V14.4773C2.65907 14.9668 3.05594 15.3637 3.54546 15.3637H14.4773C14.9668 15.3637 15.3637 14.9668 15.3637 14.4773V3.54546C15.3637 3.05594 14.9668 2.65907 14.4773 2.65907H3.54546ZM3.54546 0H14.4773C16.4354 0 18.0227 1.58736 18.0227 3.54546V14.4773C18.0227 16.4354 16.4354 18.0227 14.4773 18.0227H3.54546C1.58736 18.0227 0 16.4354 0 14.4773V3.54546C0 1.58736 1.58736 0 3.54546 0ZM5.90907 5.02273H12.1137C12.6032 5.02273 13 5.41955 13 5.90907V12.1137C13 12.6032 12.6032 13 12.1137 13H5.90907C5.41955 13 5.02273 12.6032 5.02273 12.1137V5.90907C5.02273 5.41955 5.41955 5.02273 5.90907 5.02273ZM3.54546 49.3409C3.05594 49.3409 2.65907 49.7377 2.65907 50.2273V61.4545C2.65907 61.9441 3.05594 62.3409 3.54546 62.3409H14.4773C14.9668 62.3409 15.3637 61.9441 15.3637 61.4545V50.2273C15.3637 49.7377 14.9668 49.3409 14.4773 49.3409H3.54546ZM3.54546 46.6818H14.4773C16.4354 46.6818 18.0227 48.2692 18.0227 50.2273V61.4545C18.0227 63.4126 16.4354 65 14.4773 65H3.54546C1.58736 65 0 63.4126 0 61.4545V50.2273C0 48.2692 1.58736 46.6818 3.54546 46.6818ZM5.90907 52H12.1137C12.6032 52 13 52.3968 13 52.8863V58.7955C13 59.285 12.6032 59.6818 12.1137 59.6818H5.90907C5.41955 59.6818 5.02273 59.285 5.02273 58.7955V52.8863C5.02273 52.3968 5.41955 52 5.90907 52ZM50.2273 2.65907C49.7377 2.65907 49.3409 3.05594 49.3409 3.54546V14.4773C49.3409 14.9668 49.7377 15.3637 50.2273 15.3637H61.4545C61.9441 15.3637 62.3409 14.9668 62.3409 14.4773V3.54546C62.3409 3.05594 61.9441 2.65907 61.4545 2.65907H50.2273ZM50.2273 0H61.4545C63.4126 0 65 1.58736 65 3.54546V14.4773C65 16.4354 63.4126 18.0227 61.4545 18.0227H50.2273C48.2692 18.0227 46.6818 16.4354 46.6818 14.4773V3.54546C46.6818 1.58736 48.2692 0 50.2273 0ZM52.8863 5.02273H58.7955C59.285 5.02273 59.6818 5.41955 59.6818 5.90907V12.1137C59.6818 12.6032 59.285 13 58.7955 13H52.8863C52.3968 13 52 12.6032 52 12.1137V5.90907C52 5.41955 52.3968 5.02273 52.8863 5.02273ZM42.25 10.3409H43.1363C43.6259 10.3409 44.0227 10.7377 44.0227 11.2273V12.1137C44.0227 12.6032 43.6259 13 43.1363 13H42.25C41.7605 13 41.3637 12.6032 41.3637 12.1137V11.2273C41.3637 10.7377 41.7605 10.3409 42.25 10.3409ZM42.25 15.3637H43.1363C43.6259 15.3637 44.0227 15.7605 44.0227 16.25V19.7955C44.0227 20.285 43.6259 20.6818 43.1363 20.6818H42.25C41.7605 20.6818 41.3637 20.285 41.3637 19.7955V16.25C41.3637 15.7605 41.7605 15.3637 42.25 15.3637ZM44.9091 20.6818H45.7955C46.285 20.6818 46.6818 21.0787 46.6818 21.5682V22.4545C46.6818 22.9441 46.285 23.3409 45.7955 23.3409H44.9091C44.4195 23.3409 44.0227 22.9441 44.0227 22.4545V21.5682C44.0227 21.0787 44.4195 20.6818 44.9091 20.6818ZM26.8863 10.3409H27.4773C27.9668 10.3409 28.3637 10.7377 28.3637 11.2273V17.1363C28.3637 17.6259 27.9668 18.0227 27.4773 18.0227H26.8863C26.3968 18.0227 26 17.6259 26 17.1363V11.2273C26 10.7377 26.3968 10.3409 26.8863 10.3409ZM21.5682 13H22.4545C22.9441 13 23.3409 13.3968 23.3409 13.8863V17.1363C23.3409 17.6259 22.9441 18.0227 22.4545 18.0227H21.5682C21.0787 18.0227 20.6818 17.6259 20.6818 17.1363V13.8863C20.6818 13.3968 21.0787 13 21.5682 13ZM0.886341 28.3637H1.47727C1.96679 28.3637 2.36366 28.7605 2.36366 29.25V30.1363C2.36366 30.6259 1.96679 31.0227 1.47727 31.0227H0.886341C0.396816 31.0227 0 30.6259 0 30.1363V29.25C0 28.7605 0.396816 28.3637 0.886341 28.3637ZM0.886341 33.6818H1.47727C1.96679 33.6818 2.36366 34.0787 2.36366 34.5682V43.1363C2.36366 43.6259 1.96679 44.0227 1.47727 44.0227H0.886341C0.396816 44.0227 0 43.6259 0 43.1363V34.5682C0 34.0787 0.396816 33.6818 0.886341 33.6818ZM11.2273 36.3409H12.1137C12.6032 36.3409 13 36.7377 13 37.2273V38.1137C13 38.6032 12.6032 39 12.1137 39H11.2273C10.7377 39 10.3409 38.6032 10.3409 38.1137V37.2273C10.3409 36.7377 10.7377 36.3409 11.2273 36.3409ZM16.25 36.3409H17.1363C17.6259 36.3409 18.0227 36.7377 18.0227 37.2273V38.1137C18.0227 38.6032 17.6259 39 17.1363 39H16.25C15.7605 39 15.3637 38.6032 15.3637 38.1137V37.2273C15.3637 36.7377 15.7605 36.3409 16.25 36.3409ZM21.5682 39H22.4545C22.9441 39 23.3409 39.3968 23.3409 39.8863V40.4773C23.3409 40.9668 22.9441 41.3637 22.4545 41.3637H21.5682C21.0787 41.3637 20.6818 40.9668 20.6818 40.4773V39.8863C20.6818 39.3968 21.0787 39 21.5682 39ZM13.8863 41.3637H19.7955C20.285 41.3637 20.6818 41.7605 20.6818 42.25V43.1363C20.6818 43.6259 20.285 44.0227 19.7955 44.0227H13.8863C13.3968 44.0227 13 43.6259 13 43.1363V42.25C13 41.7605 13.3968 41.3637 13.8863 41.3637ZM21.5682 44.0227H22.4545C22.9441 44.0227 23.3409 44.4195 23.3409 44.9091V48.4545C23.3409 48.9441 22.9441 49.3409 22.4545 49.3409H21.5682C21.0787 49.3409 20.6818 48.9441 20.6818 48.4545V44.9091C20.6818 44.4195 21.0787 44.0227 21.5682 44.0227ZM24.2273 49.3409H25.1137C25.6032 49.3409 26 49.7377 26 50.2273V51.1137C26 51.6032 25.6032 52 25.1137 52H24.2273C23.7377 52 23.3409 51.6032 23.3409 51.1137V50.2273C23.3409 49.7377 23.7377 49.3409 24.2273 49.3409ZM26.8863 57.0227H27.4773C27.9668 57.0227 28.3637 57.4195 28.3637 57.9091V64.1137C28.3637 64.6032 27.9668 65 27.4773 65H26.8863C26.3968 65 26 64.6032 26 64.1137V57.9091C26 57.4195 26.3968 57.0227 26.8863 57.0227ZM47.5682 46.6818H48.4545C48.9441 46.6818 49.3409 47.0787 49.3409 47.5682V48.4545C49.3409 48.9441 48.9441 49.3409 48.4545 49.3409H47.5682C47.0787 49.3409 46.6818 48.9441 46.6818 48.4545V47.5682C46.6818 47.0787 47.0787 46.6818 47.5682 46.6818ZM57.9091 41.3637H58.7955C59.285 41.3637 59.6818 41.7605 59.6818 42.25V43.1363C59.6818 43.6259 59.285 44.0227 58.7955 44.0227H57.9091C57.4195 44.0227 57.0227 43.6259 57.0227 43.1363V42.25C57.0227 41.7605 57.4195 41.3637 57.9091 41.3637ZM42.25 59.6818H43.1363C43.6259 59.6818 44.0227 60.0787 44.0227 60.5682V61.4545C44.0227 61.9441 43.6259 62.3409 43.1363 62.3409H42.25C41.7605 62.3409 41.3637 61.9441 41.3637 61.4545V60.5682C41.3637 60.0787 41.7605 59.6818 42.25 59.6818ZM44.9091 62.3409H45.7955C46.285 62.3409 46.6818 62.7377 46.6818 63.2273V64.1137C46.6818 64.6032 46.285 65 45.7955 65H44.9091C44.4195 65 44.0227 64.6032 44.0227 64.1137V63.2273C44.0227 62.7377 44.4195 62.3409 44.9091 62.3409ZM44.9091 26H45.7955C46.285 26 46.6818 26.3968 46.6818 26.8863V27.4773C46.6818 27.9668 46.285 28.3637 45.7955 28.3637H44.9091C44.4195 28.3637 44.0227 27.9668 44.0227 27.4773V26.8863C44.0227 26.3968 44.4195 26 44.9091 26ZM50.2273 20.6818H51.1137C51.6032 20.6818 52 21.0787 52 21.5682V25.1137C52 25.6032 51.6032 26 51.1137 26H50.2273C49.7377 26 49.3409 25.6032 49.3409 25.1137V21.5682C49.3409 21.0787 49.7377 20.6818 50.2273 20.6818ZM52.8863 26H56.1363C56.6259 26 57.0227 26.3968 57.0227 26.8863V27.4773C57.0227 27.9668 56.6259 28.3637 56.1363 28.3637H52.8863C52.3968 28.3637 52 27.9668 52 27.4773V26.8863C52 26.3968 52.3968 26 52.8863 26ZM55.25 20.6818H56.1363C56.6259 20.6818 57.0227 21.0787 57.0227 21.5682V22.4545C57.0227 22.9441 56.6259 23.3409 56.1363 23.3409H55.25C54.7605 23.3409 54.3637 22.9441 54.3637 22.4545V21.5682C54.3637 21.0787 54.7605 20.6818 55.25 20.6818ZM52.8863 31.0227H53.4773C53.9668 31.0227 54.3637 31.4195 54.3637 31.9091V32.7955C54.3637 33.285 53.9668 33.6818 53.4773 33.6818H52.8863C52.3968 33.6818 52 33.285 52 32.7955V31.9091C52 31.4195 52.3968 31.0227 52.8863 31.0227ZM16.25 26H17.1363C17.6259 26 18.0227 26.3968 18.0227 26.8863V27.4773C18.0227 27.9668 17.6259 28.3637 17.1363 28.3637H16.25C15.7605 28.3637 15.3637 27.9668 15.3637 27.4773V26.8863C15.3637 26.3968 15.7605 26 16.25 26ZM8.5682 26H9.45454C9.94406 26 10.3409 26.3968 10.3409 26.8863V27.4773C10.3409 27.9668 9.94406 28.3637 9.45454 28.3637H8.5682C8.07867 28.3637 7.6818 27.9668 7.6818 27.4773V26.8863C7.6818 26.3968 8.07867 26 8.5682 26ZM11.2273 28.3637H14.4773C14.9668 28.3637 15.3637 28.7605 15.3637 29.25V30.1363C15.3637 30.6259 14.9668 31.0227 14.4773 31.0227H11.2273C10.7377 31.0227 10.3409 30.6259 10.3409 30.1363V29.25C10.3409 28.7605 10.7377 28.3637 11.2273 28.3637Z" fill="white"/>
</svg>
