<svg width="20" height="20" viewBox="0 0 20 20" fill="none" xmlns="http://www.w3.org/2000/svg">
<path d="M13.8125 1.625H5.6875C3.44384 1.625 1.625 3.44384 1.625 5.6875V13.8125C1.625 16.0562 3.44384 17.875 5.6875 17.875H13.8125C16.0562 17.875 17.875 16.0562 17.875 13.8125V5.6875C17.875 3.44384 16.0562 1.625 13.8125 1.625Z" stroke="#1FC7D3" stroke-linecap="round" stroke-linejoin="round"/>
<path d="M13 9.23813C13.1003 9.91433 12.9848 10.6049 12.6699 11.2117C12.3551 11.8185 11.8569 12.3105 11.2463 12.6179C10.6357 12.9252 9.94374 13.0322 9.26883 12.9236C8.59392 12.815 7.97044 12.4963 7.48706 12.0129C7.00369 11.5296 6.68504 10.9061 6.57644 10.2312C6.46783 9.55626 6.57481 8.86429 6.88215 8.25368C7.18948 7.64307 7.68153 7.14492 8.28831 6.83007C8.89508 6.51523 9.58568 6.39973 10.2619 6.5C10.9516 6.60228 11.5902 6.92369 12.0833 7.41675C12.5763 7.90981 12.8977 8.54838 13 9.23813Z" stroke="#1FC7D3" stroke-linecap="round" stroke-linejoin="round"/>
<path d="M14.2188 5.28125H14.2277" stroke="#1FC7D3" stroke-linecap="round" stroke-linejoin="round"/>
</svg>
