<svg width="20" height="20" viewBox="0 0 20 20" fill="none" xmlns="http://www.w3.org/2000/svg">
<path d="M13 6.5C14.2929 6.5 15.5329 7.01361 16.4471 7.92785C17.3614 8.84209 17.875 10.0821 17.875 11.375V17.0625H14.625V11.375C14.625 10.944 14.4538 10.5307 14.149 10.226C13.8443 9.92121 13.431 9.75 13 9.75C12.569 9.75 12.1557 9.92121 11.851 10.226C11.5462 10.5307 11.375 10.944 11.375 11.375V17.0625H8.125V11.375C8.125 10.0821 8.63861 8.84209 9.55285 7.92785C10.4671 7.01361 11.7071 6.5 13 6.5V6.5Z" stroke="#1FC7D3" stroke-linecap="round" stroke-linejoin="round"/>
<path d="M4.875 7.3125H1.625V17.0625H4.875V7.3125Z" stroke="#1FC7D3" stroke-linecap="round" stroke-linejoin="round"/>
<path d="M3.25 4.875C4.14746 4.875 4.875 4.14746 4.875 3.25C4.875 2.35254 4.14746 1.625 3.25 1.625C2.35254 1.625 1.625 2.35254 1.625 3.25C1.625 4.14746 2.35254 4.875 3.25 4.875Z" stroke="#1FC7D3" stroke-linecap="round" stroke-linejoin="round"/>
</svg>
