<svg width="196" height="65" viewBox="0 0 196 65" fill="none" xmlns="http://www.w3.org/2000/svg">
<path fill-rule="evenodd" clip-rule="evenodd" d="M0 15C0 6.71573 6.71573 0 15 0H181C189.284 0 196 6.71573 196 15V50C196 58.2843 189.284 65 181 65H15C6.71573 65 0 58.2843 0 50V15ZM59.7 18.33C59.7 18.87 59.79 19.368 59.97 19.824C60.15 20.268 60.39 20.658 60.69 20.994C60.99 21.318 61.338 21.57 61.734 21.75C62.142 21.93 62.574 22.02 63.03 22.02C63.594 22.02 64.062 21.918 64.434 21.714C64.806 21.498 65.1 21.258 65.316 20.994C65.568 20.682 65.766 20.334 65.91 19.95H62.94V18.06H68.25V24H66.72L66.27 22.92C66.006 23.148 65.712 23.346 65.388 23.514C65.112 23.658 64.776 23.79 64.38 23.91C63.984 24.03 63.534 24.09 63.03 24.09C62.286 24.09 61.578 23.946 60.906 23.658C60.246 23.358 59.664 22.95 59.16 22.434C58.668 21.906 58.272 21.294 57.972 20.598C57.684 19.902 57.54 19.146 57.54 18.33C57.54 17.526 57.684 16.776 57.972 16.08C58.272 15.372 58.668 14.76 59.16 14.244C59.664 13.716 60.246 13.308 60.906 13.02C61.578 12.72 62.286 12.57 63.03 12.57C63.678 12.57 64.278 12.684 64.83 12.912C65.394 13.128 65.892 13.422 66.324 13.794C66.756 14.154 67.122 14.58 67.422 15.072C67.722 15.564 67.938 16.08 68.07 16.62H65.82C65.748 16.368 65.634 16.128 65.478 15.9C65.322 15.66 65.124 15.45 64.884 15.27C64.656 15.078 64.386 14.928 64.074 14.82C63.762 14.7 63.414 14.64 63.03 14.64C62.574 14.64 62.142 14.73 61.734 14.91C61.338 15.09 60.99 15.348 60.69 15.684C60.39 16.008 60.15 16.398 59.97 16.854C59.79 17.298 59.7 17.79 59.7 18.33ZM77.6044 21.48C77.4964 21.792 77.3284 22.104 77.1004 22.416C76.8844 22.728 76.6144 23.01 76.2904 23.262C75.9784 23.502 75.6184 23.7 75.2104 23.856C74.8144 24.012 74.3824 24.09 73.9144 24.09C73.3504 24.09 72.8164 23.982 72.3124 23.766C71.8204 23.538 71.3824 23.232 70.9984 22.848C70.6264 22.464 70.3264 22.02 70.0984 21.516C69.8824 21 69.7744 20.448 69.7744 19.86C69.7744 19.272 69.8824 18.726 70.0984 18.222C70.3264 17.706 70.6264 17.256 70.9984 16.872C71.3824 16.488 71.8204 16.188 72.3124 15.972C72.8164 15.744 73.3504 15.63 73.9144 15.63C74.4544 15.63 74.9644 15.732 75.4444 15.936C75.9244 16.14 76.3444 16.428 76.7044 16.8C77.0644 17.172 77.3464 17.622 77.5504 18.15C77.7664 18.666 77.8744 19.236 77.8744 19.86C77.8744 19.956 77.8684 20.052 77.8564 20.148L77.8204 20.4C77.8084 20.496 77.7964 20.586 77.7844 20.67H72.0244C72.1204 21.078 72.3244 21.42 72.6364 21.696C72.9484 21.972 73.3744 22.11 73.9144 22.11C74.1904 22.11 74.4184 22.08 74.5984 22.02C74.7904 21.96 74.9524 21.888 75.0844 21.804C75.2284 21.708 75.3484 21.6 75.4444 21.48H77.6044ZM73.9144 17.61C73.3744 17.61 72.9304 17.766 72.5824 18.078C72.2464 18.39 72.0304 18.774 71.9344 19.23H75.8944C75.7984 18.774 75.5764 18.39 75.2284 18.078C74.8924 17.766 74.4544 17.61 73.9144 17.61ZM82.1002 13.74H80.3002V14.91C80.3002 15.57 79.9702 15.9 79.3102 15.9H78.7702V17.61H80.0302V21.12C80.0302 21.576 80.0962 21.984 80.2282 22.344C80.3722 22.704 80.5642 23.016 80.8042 23.28C81.0562 23.544 81.3502 23.748 81.6862 23.892C82.0342 24.024 82.4122 24.09 82.8202 24.09C83.0842 24.09 83.3182 24.06 83.5222 24C83.6302 23.976 83.7262 23.946 83.8102 23.91V22.11C83.7622 22.134 83.7142 22.152 83.6662 22.164C83.6182 22.176 83.5642 22.188 83.5042 22.2H83.2702C82.9102 22.2 82.6222 22.098 82.4062 21.894C82.2022 21.678 82.1002 21.39 82.1002 21.03V17.61H83.9002V15.72H82.1002V13.74ZM91.2682 19.86C91.2682 20.544 91.4662 21.09 91.8622 21.498C92.2582 21.906 92.7502 22.11 93.3382 22.11C93.9262 22.11 94.4182 21.906 94.8142 21.498C95.2102 21.09 95.4082 20.544 95.4082 19.86C95.4082 19.176 95.2102 18.63 94.8142 18.222C94.4182 17.814 93.9262 17.61 93.3382 17.61C92.7502 17.61 92.2582 17.814 91.8622 18.222C91.4662 18.63 91.2682 19.176 91.2682 19.86ZM97.4782 19.86C97.4782 20.448 97.3642 21 97.1362 21.516C96.9202 22.02 96.6202 22.464 96.2362 22.848C95.8642 23.232 95.4262 23.538 94.9222 23.766C94.4302 23.982 93.9022 24.09 93.3382 24.09C92.7742 24.09 92.2402 23.982 91.7362 23.766C91.2442 23.538 90.8062 23.232 90.4222 22.848C90.0502 22.464 89.7502 22.02 89.5222 21.516C89.3062 21 89.1982 20.448 89.1982 19.86C89.1982 19.272 89.3062 18.726 89.5222 18.222C89.7502 17.706 90.0502 17.256 90.4222 16.872C90.8062 16.488 91.2442 16.188 91.7362 15.972C92.2402 15.744 92.7742 15.63 93.3382 15.63C93.9022 15.63 94.4302 15.744 94.9222 15.972C95.4262 16.188 95.8642 16.488 96.2362 16.872C96.6202 17.256 96.9202 17.706 97.1362 18.222C97.3642 18.726 97.4782 19.272 97.4782 19.86ZM104.58 15.882C104.172 15.714 103.722 15.63 103.23 15.63C102.882 15.63 102.564 15.678 102.276 15.774C102 15.87 101.76 15.972 101.556 16.08C101.316 16.212 101.094 16.362 100.89 16.53L100.53 15.72H98.9998V24H101.07V19.41C101.07 18.87 101.226 18.438 101.538 18.114C101.862 17.778 102.276 17.61 102.78 17.61C103.284 17.61 103.692 17.778 104.004 18.114C104.328 18.438 104.49 18.87 104.49 19.41V24H106.56V19.14C106.56 18.6 106.476 18.114 106.308 17.682C106.152 17.25 105.924 16.884 105.624 16.584C105.336 16.272 104.988 16.038 104.58 15.882ZM113.4 13.74H115.2V15.72H117V17.61H115.2V21.03C115.2 21.39 115.302 21.678 115.506 21.894C115.722 22.098 116.01 22.2 116.37 22.2H116.604C116.664 22.188 116.718 22.176 116.766 22.164C116.814 22.152 116.862 22.134 116.91 22.11V23.91C116.826 23.946 116.73 23.976 116.622 24C116.418 24.06 116.184 24.09 115.92 24.09C115.512 24.09 115.134 24.024 114.786 23.892C114.45 23.748 114.156 23.544 113.904 23.28C113.664 23.016 113.472 22.704 113.328 22.344C113.196 21.984 113.13 21.576 113.13 21.12V17.61H111.87V15.9H112.41C113.07 15.9 113.4 15.57 113.4 14.91V13.74ZM124.357 15.882C123.973 15.714 123.559 15.63 123.115 15.63C122.707 15.63 122.353 15.678 122.053 15.774C121.765 15.87 121.525 15.972 121.333 16.08C121.117 16.212 120.931 16.362 120.775 16.53V12.66H118.705V24H120.775V19.41C120.775 18.87 120.931 18.438 121.243 18.114C121.567 17.778 121.981 17.61 122.485 17.61C122.989 17.61 123.397 17.778 123.709 18.114C124.033 18.438 124.195 18.87 124.195 19.41V24H126.265V19.14C126.265 18.6 126.181 18.114 126.013 17.682C125.857 17.25 125.641 16.884 125.365 16.584C125.089 16.272 124.753 16.038 124.357 15.882ZM135.542 21.48C135.434 21.792 135.266 22.104 135.038 22.416C134.822 22.728 134.552 23.01 134.228 23.262C133.916 23.502 133.556 23.7 133.148 23.856C132.752 24.012 132.32 24.09 131.852 24.09C131.288 24.09 130.754 23.982 130.25 23.766C129.758 23.538 129.32 23.232 128.936 22.848C128.564 22.464 128.264 22.02 128.036 21.516C127.82 21 127.712 20.448 127.712 19.86C127.712 19.272 127.82 18.726 128.036 18.222C128.264 17.706 128.564 17.256 128.936 16.872C129.32 16.488 129.758 16.188 130.25 15.972C130.754 15.744 131.288 15.63 131.852 15.63C132.392 15.63 132.902 15.732 133.382 15.936C133.862 16.14 134.282 16.428 134.642 16.8C135.002 17.172 135.284 17.622 135.488 18.15C135.704 18.666 135.812 19.236 135.812 19.86C135.812 19.956 135.806 20.052 135.794 20.148L135.758 20.4C135.746 20.496 135.734 20.586 135.722 20.67H129.962C130.058 21.078 130.262 21.42 130.574 21.696C130.886 21.972 131.312 22.11 131.852 22.11C132.128 22.11 132.356 22.08 132.536 22.02C132.728 21.96 132.89 21.888 133.022 21.804C133.166 21.708 133.286 21.6 133.382 21.48H135.542ZM131.852 17.61C131.312 17.61 130.868 17.766 130.52 18.078C130.184 18.39 129.968 18.774 129.872 19.23H133.832C133.736 18.774 133.514 18.39 133.166 18.078C132.83 17.766 132.392 17.61 131.852 17.61ZM114.607 34.31C114.307 34.97 114.157 35.66 114.157 36.38C114.157 37.48 114.397 38.37 114.877 39.05C115.357 39.71 115.957 40.25 116.677 40.67C117.397 41.09 118.177 41.42 119.017 41.66C119.877 41.9 120.667 42.15 121.387 42.41C122.107 42.65 122.707 42.93 123.187 43.25C123.667 43.57 123.907 44.02 123.907 44.6C123.907 45.2 123.647 45.73 123.127 46.19C122.607 46.63 121.817 46.85 120.757 46.85C119.777 46.85 119.007 46.59 118.447 46.07C117.887 45.53 117.607 44.84 117.607 44H114.007C114.007 44.9 114.157 45.73 114.457 46.49C114.777 47.23 115.227 47.88 115.807 48.44C116.387 48.98 117.087 49.4 117.907 49.7C118.747 50 119.697 50.15 120.757 50.15C121.797 50.15 122.737 50 123.577 49.7C124.437 49.38 125.167 48.97 125.767 48.47C126.367 47.95 126.827 47.37 127.147 46.73C127.487 46.09 127.657 45.43 127.657 44.75C127.657 43.61 127.417 42.69 126.937 41.99C126.457 41.27 125.857 40.69 125.137 40.25C124.417 39.81 123.627 39.46 122.767 39.2C121.927 38.94 121.147 38.69 120.427 38.45C119.707 38.21 119.107 37.94 118.627 37.64C118.147 37.34 117.907 36.91 117.907 36.35C117.907 35.83 118.157 35.35 118.657 34.91C119.157 34.47 119.857 34.25 120.757 34.25C121.657 34.25 122.357 34.49 122.857 34.97C123.357 35.45 123.607 36.11 123.607 36.95H127.057C127.057 36.09 126.907 35.3 126.607 34.58C126.307 33.84 125.877 33.2 125.317 32.66C124.757 32.12 124.087 31.7 123.307 31.4C122.547 31.1 121.697 30.95 120.757 30.95C119.737 30.95 118.817 31.1 117.997 31.4C117.197 31.7 116.507 32.1 115.927 32.6C115.367 33.08 114.927 33.65 114.607 34.31ZM56.8501 50H60.6001L61.9501 46.1H69.1501L70.5001 50H74.2501L67.2001 31.1H63.9001L56.8501 50ZM65.5501 35.9L67.9501 42.8H63.1501L65.5501 35.9ZM85.2695 36.59C84.4895 36.23 83.6695 36.05 82.8095 36.05C82.2095 36.05 81.6695 36.13 81.1895 36.29C80.7095 36.45 80.2995 36.62 79.9595 36.8C79.5595 37.02 79.2095 37.27 78.9095 37.55L78.3095 36.2H75.7595V54.8H79.2095V48.8C79.4895 49.06 79.8095 49.29 80.1695 49.49C80.4895 49.65 80.8595 49.8 81.2795 49.94C81.7195 50.08 82.2295 50.15 82.8095 50.15C83.6695 50.15 84.4895 49.98 85.2695 49.64C86.0495 49.28 86.7295 48.79 87.3095 48.17C87.9095 47.53 88.3795 46.78 88.7195 45.92C89.0795 45.06 89.2595 44.12 89.2595 43.1C89.2595 42.08 89.0795 41.14 88.7195 40.28C88.3795 39.42 87.9095 38.68 87.3095 38.06C86.7295 37.42 86.0495 36.93 85.2695 36.59ZM79.8995 45.83C79.2395 45.15 78.9095 44.24 78.9095 43.1C78.9095 41.96 79.2395 41.05 79.8995 40.37C80.5595 39.69 81.3795 39.35 82.3595 39.35C83.3395 39.35 84.1595 39.69 84.8195 40.37C85.4795 41.05 85.8095 41.96 85.8095 43.1C85.8095 44.24 85.4795 45.15 84.8195 45.83C84.1595 46.51 83.3395 46.85 82.3595 46.85C81.3795 46.85 80.5595 46.51 79.8995 45.83ZM98.8642 36.05C99.7242 36.05 100.544 36.23 101.324 36.59C102.104 36.93 102.784 37.42 103.364 38.06C103.964 38.68 104.434 39.42 104.774 40.28C105.134 41.14 105.314 42.08 105.314 43.1C105.314 44.12 105.134 45.06 104.774 45.92C104.434 46.78 103.964 47.53 103.364 48.17C102.784 48.79 102.104 49.28 101.324 49.64C100.544 49.98 99.7242 50.15 98.8642 50.15C98.2842 50.15 97.7742 50.08 97.3342 49.94C96.9142 49.8 96.5442 49.65 96.2242 49.49C95.8642 49.29 95.5442 49.06 95.2642 48.8V54.8H91.8142V36.2H94.3642L94.9642 37.55C95.2642 37.27 95.6142 37.02 96.0142 36.8C96.3542 36.62 96.7642 36.45 97.2442 36.29C97.7242 36.13 98.2642 36.05 98.8642 36.05ZM94.9642 43.1C94.9642 44.24 95.2942 45.15 95.9542 45.83C96.6142 46.51 97.4342 46.85 98.4142 46.85C99.3942 46.85 100.214 46.51 100.874 45.83C101.534 45.15 101.864 44.24 101.864 43.1C101.864 41.96 101.534 41.05 100.874 40.37C100.214 39.69 99.3942 39.35 98.4142 39.35C97.4342 39.35 96.6142 39.69 95.9542 40.37C95.2942 41.05 94.9642 41.96 94.9642 43.1ZM131.693 32.9H134.693V36.2H137.693V39.35H134.693V45.05C134.693 45.65 134.863 46.13 135.203 46.49C135.563 46.83 136.043 47 136.643 47H137.033C137.133 46.98 137.223 46.96 137.303 46.94C137.383 46.92 137.463 46.89 137.543 46.85V49.85C137.403 49.91 137.243 49.96 137.063 50C136.723 50.1 136.333 50.15 135.893 50.15C135.213 50.15 134.583 50.04 134.003 49.82C133.443 49.58 132.953 49.24 132.533 48.8C132.133 48.36 131.813 47.84 131.573 47.24C131.353 46.64 131.243 45.96 131.243 45.2V39.35H129.143V36.5H130.043C131.143 36.5 131.693 35.95 131.693 34.85V32.9ZM143.932 45.83C143.272 45.15 142.942 44.24 142.942 43.1C142.942 41.96 143.272 41.05 143.932 40.37C144.592 39.69 145.412 39.35 146.392 39.35C147.372 39.35 148.192 39.69 148.852 40.37C149.512 41.05 149.842 41.96 149.842 43.1C149.842 44.24 149.512 45.15 148.852 45.83C148.192 46.51 147.372 46.85 146.392 46.85C145.412 46.85 144.592 46.51 143.932 45.83ZM152.722 45.86C153.102 45 153.292 44.08 153.292 43.1C153.292 42.12 153.102 41.21 152.722 40.37C152.362 39.51 151.862 38.76 151.222 38.12C150.602 37.48 149.872 36.98 149.032 36.62C148.212 36.24 147.332 36.05 146.392 36.05C145.452 36.05 144.562 36.24 143.722 36.62C142.902 36.98 142.172 37.48 141.532 38.12C140.912 38.76 140.412 39.51 140.032 40.37C139.672 41.21 139.492 42.12 139.492 43.1C139.492 44.08 139.672 45 140.032 45.86C140.412 46.7 140.912 47.44 141.532 48.08C142.172 48.72 142.902 49.23 143.722 49.61C144.562 49.97 145.452 50.15 146.392 50.15C147.332 50.15 148.212 49.97 149.032 49.61C149.872 49.23 150.602 48.72 151.222 48.08C151.862 47.44 152.362 46.7 152.722 45.86ZM162.278 36.05C162.438 36.05 162.578 36.06 162.698 36.08C162.818 36.1 162.928 36.12 163.028 36.14L163.328 36.2V39.8C163.228 39.78 163.118 39.76 162.998 39.74C162.898 39.72 162.768 39.7 162.608 39.68C162.468 39.66 162.308 39.65 162.128 39.65C161.288 39.65 160.598 39.93 160.058 40.49C159.538 41.03 159.278 41.75 159.278 42.65V50H155.828V36.2H158.378L158.978 37.7C159.218 37.4 159.508 37.13 159.848 36.89C160.128 36.67 160.468 36.48 160.868 36.32C161.288 36.14 161.758 36.05 162.278 36.05ZM176.897 47.36C177.277 46.84 177.557 46.32 177.737 45.8H174.137C173.977 46 173.777 46.18 173.537 46.34C173.317 46.48 173.047 46.6 172.727 46.7C172.427 46.8 172.047 46.85 171.587 46.85C170.687 46.85 169.977 46.62 169.457 46.16C168.937 45.7 168.597 45.13 168.437 44.45H178.037C178.057 44.31 178.077 44.16 178.097 44L178.157 43.58C178.177 43.42 178.187 43.26 178.187 43.1C178.187 42.06 178.007 41.11 177.647 40.25C177.307 39.37 176.837 38.62 176.237 38C175.637 37.38 174.937 36.9 174.137 36.56C173.337 36.22 172.487 36.05 171.587 36.05C170.647 36.05 169.757 36.24 168.917 36.62C168.097 36.98 167.367 37.48 166.727 38.12C166.107 38.76 165.607 39.51 165.227 40.37C164.867 41.21 164.687 42.12 164.687 43.1C164.687 44.08 164.867 45 165.227 45.86C165.607 46.7 166.107 47.44 166.727 48.08C167.367 48.72 168.097 49.23 168.917 49.61C169.757 49.97 170.647 50.15 171.587 50.15C172.367 50.15 173.087 50.02 173.747 49.76C174.427 49.5 175.027 49.17 175.547 48.77C176.087 48.35 176.537 47.88 176.897 47.36ZM169.367 40.13C169.947 39.61 170.687 39.35 171.587 39.35C172.487 39.35 173.217 39.61 173.777 40.13C174.357 40.65 174.727 41.29 174.887 42.05H168.287C168.447 41.29 168.807 40.65 169.367 40.13ZM40.1066 31.9616C40.0723 27.8921 43.3965 25.8803 43.6479 25.7281L43.6578 25.7221C41.7081 22.9028 38.6907 22.51 37.6346 22.4753C36.0866 22.3127 34.5648 22.9157 33.3215 23.4083C32.5327 23.7208 31.8561 23.9889 31.356 23.9889C30.7863 23.9889 30.0873 23.7098 29.3038 23.3969C28.2839 22.9895 27.1208 22.525 25.9131 22.5446C23.1626 22.5908 20.5746 24.1738 19.1703 26.6465C16.2574 31.6728 18.4276 39.0677 21.2245 43.1349C22.6287 45.1223 24.2535 47.3523 26.4005 47.2715C27.371 47.2339 28.061 46.9444 28.7741 46.6452C29.596 46.3004 30.4487 45.9427 31.7971 45.9427C33.0787 45.9427 33.8962 46.29 34.6807 46.6234C35.4307 46.942 36.1505 47.2478 37.2168 47.2252C39.4683 47.1906 40.8725 45.2263 42.2303 43.2158C43.8435 40.9395 44.4934 38.6864 44.5166 38.5709L44.5141 38.5698C44.3821 38.5182 40.1526 36.8629 40.1066 31.9616ZM37.6694 14.5598C37.8783 16.501 37.1123 18.4075 35.9866 19.8056C34.8144 21.1806 32.9343 22.2436 31.1007 22.105C30.8686 20.2447 31.797 18.2688 32.8299 17.0556C34.002 15.6806 36.0446 14.6291 37.6694 14.5598Z" fill="url(#paint0_linear)"/>
<defs>
<linearGradient id="paint0_linear" x1="98" y1="0" x2="98" y2="65" gradientUnits="userSpaceOnUse">
<stop stop-color="white"/>
<stop offset="1" stop-color="white" stop-opacity="0.75"/>
</linearGradient>
</defs>
</svg>
