<svg width="44" height="42" viewBox="0 0 44 42" fill="none" xmlns="http://www.w3.org/2000/svg">
<path d="M12.4883 41.3633C13.4453 41.3633 14.1094 40.8555 15.3008 39.8008L22.0391 33.8047H34.5781C40.3984 33.8047 43.5234 30.582 43.5234 24.8594V9.89844C43.5234 4.17578 40.3984 0.953125 34.5781 0.953125H9.42188C3.60156 0.953125 0.476562 4.15625 0.476562 9.89844V24.8594C0.476562 30.6016 3.60156 33.8047 9.42188 33.8047H10.3594V38.8828C10.3594 40.3867 11.1211 41.3633 12.4883 41.3633ZM13.2891 37.7891V32.125C13.2891 31.0703 12.8789 30.6602 11.8242 30.6602H9.42188C5.47656 30.6602 3.62109 28.6484 3.62109 24.8398V9.89844C3.62109 6.08984 5.47656 4.09766 9.42188 4.09766H34.5781C38.5039 4.09766 40.3789 6.08984 40.3789 9.89844V24.8398C40.3789 28.6484 38.5039 30.6602 34.5781 30.6602H21.9219C20.8281 30.6602 20.2812 30.8164 19.5391 31.5781L13.2891 37.7891ZM12.4492 20.1719C13.9922 20.1719 15.2422 18.9219 15.2422 17.3789C15.2422 15.8359 13.9922 14.5859 12.4492 14.5859C10.9062 14.5859 9.65625 15.8359 9.65625 17.3789C9.65625 18.9219 10.9062 20.1719 12.4492 20.1719ZM22.0195 20.1719C23.543 20.1719 24.8125 18.9219 24.8125 17.3789C24.8125 15.8359 23.543 14.5859 22.0195 14.5859C20.4766 14.5859 19.207 15.8359 19.207 17.3789C19.207 18.9219 20.4766 20.1719 22.0195 20.1719ZM31.5703 20.1719C33.1133 20.1719 34.3633 18.9219 34.3633 17.3789C34.3633 15.8359 33.1133 14.5859 31.5703 14.5859C30.0273 14.5859 28.7773 15.8359 28.7773 17.3789C28.7773 18.9219 30.0273 20.1719 31.5703 20.1719Z" fill="url(#paint2_linear)"/>
<defs>
<linearGradient id="paint2_linear" x1="-3" y1="-5" x2="-3" y2="45" gradientUnits="userSpaceOnUse">
<stop stop-color="#65FA74"/>
<stop offset="1" stop-color="#01A4D8"/>
</linearGradient>
</defs>
</svg>
