<svg width="42" height="42" viewBox="0 0 42 42" fill="none" xmlns="http://www.w3.org/2000/svg">
<path d="M22.6992 1.71875C22.6992 0.800781 21.918 0.0195312 20.9805 0.0195312C20.0625 0.0195312 19.2812 0.800781 19.2812 1.71875V7.73438C19.2812 8.67188 20.0625 9.45312 20.9805 9.45312C21.918 9.45312 22.6992 8.67188 22.6992 7.73438V1.71875ZM28.9883 10.4297C28.3242 11.0742 28.3242 12.168 28.9883 12.832C29.6328 13.4766 30.7461 13.4766 31.4102 12.832L35.6484 8.57422C36.3125 7.91016 36.3125 6.81641 35.6484 6.15234C35.0039 5.50781 33.9102 5.50781 33.2656 6.15234L28.9883 10.4297ZM10.5703 12.832C11.2148 13.4766 12.3086 13.4766 12.9727 12.832C13.6172 12.168 13.6172 11.0742 12.9727 10.4297L8.73438 6.17188C8.08984 5.52734 6.99609 5.50781 6.33203 6.15234C5.6875 6.79688 5.6875 7.89062 6.33203 8.55469L10.5703 12.832ZM36.7812 39.8047C37.6016 40.6445 39.0078 40.6445 39.7891 39.8047C40.6094 38.9453 40.5898 37.6172 39.7891 36.7969L21.2344 18.1641C20.4141 17.3438 18.9883 17.3438 18.207 18.1641C17.4062 19.0234 17.4258 20.3711 18.207 21.1914L36.7812 39.8047ZM1.87891 19.1211C0.960938 19.1211 0.179688 19.9023 0.179688 20.8203C0.179688 21.7383 0.960938 22.5195 1.87891 22.5195H7.93359C8.85156 22.5195 9.63281 21.7383 9.63281 20.8203C9.63281 19.9023 8.85156 19.1211 7.93359 19.1211H1.87891ZM40.082 22.5195C41.0195 22.5195 41.8008 21.7383 41.8008 20.8203C41.8008 19.9023 41.0195 19.1211 40.082 19.1211H34.0664C33.1484 19.1211 32.3672 19.9023 32.3672 20.8203C32.3672 21.7383 33.1484 22.5195 34.0664 22.5195H40.082ZM37.4844 38.457L25.4336 26.3867L26.3906 25.4492L38.4414 37.5195C38.793 37.8516 38.8711 38.2422 38.5586 38.5938C38.2266 38.8867 37.8359 38.8281 37.4844 38.457ZM6.3125 33.0664C5.66797 33.7109 5.66797 34.8242 6.29297 35.4688C6.9375 36.1133 8.05078 36.1328 8.71484 35.4883L12.9727 31.2305C13.6172 30.5859 13.6172 29.4922 12.9727 28.8477C12.3477 28.1836 11.2148 28.1836 10.5703 28.8477L6.3125 33.0664ZM22.6992 33.9258C22.6992 32.9883 21.918 32.207 20.9805 32.207C20.0625 32.207 19.2812 32.9883 19.2812 33.9258V39.9414C19.2812 40.8594 20.0625 41.6406 20.9805 41.6406C21.918 41.6406 22.6992 40.8594 22.6992 39.9414V33.9258Z" fill="url(#paint1_linear)"/>
<defs>
<linearGradient id="paint1_linear" x1="-4" y1="-4" x2="-4" y2="46" gradientUnits="userSpaceOnUse">
<stop stop-color="#5F8CFF"/>
<stop offset="1" stop-color="#8E00E5"/>
</linearGradient>
</defs>
</svg>

