<svg width="28" height="28" viewBox="0 0 28 28" fill="none" xmlns="http://www.w3.org/2000/svg">
<g clip-path="url(#clip0)" filter="url(#filter0_d)">
<path d="M23.5539 0.464241C23.2629 0.168346 22.8739 0.00349679 22.4589 5.55047e-05L22.4458 0C21.5962 0 20.8991 0.691366 20.8921 1.54114C20.8888 1.95621 21.0471 2.34779 21.3382 2.64369C21.6294 2.93958 22.0182 3.10443 22.4333 3.10787L22.4463 3.10793C23.296 3.10793 23.993 2.41656 24 1.56679C24.0034 1.15172 23.845 0.760137 23.5539 0.464241ZM22.4463 2.53384L22.438 2.53379C22.1763 2.53162 21.9311 2.42766 21.7476 2.24111C21.564 2.05451 21.4641 1.80762 21.4663 1.54592C21.4707 1.01007 21.9101 0.57414 22.4458 0.57414L22.4541 0.574196C22.7158 0.576361 22.961 0.680321 23.1445 0.866872C23.3281 1.05348 23.428 1.30036 23.4258 1.56207C23.4214 2.09791 22.982 2.53384 22.4463 2.53384Z" fill="#1FC7D3"/>
<path d="M5.56678 8.4461L5.55374 8.44604C4.70402 8.44604 4.00705 9.13741 4.00005 9.98724C3.993 10.844 4.68432 11.5469 5.54114 11.554H5.55413C6.40385 11.554 7.10088 10.8626 7.10787 10.0128C7.11492 9.15601 6.42361 8.45315 5.56678 8.4461ZM5.55413 10.9798L5.54586 10.9798C5.00558 10.9753 4.56964 10.5322 4.57408 9.99191C4.57852 9.45606 5.01795 9.02013 5.55368 9.02013H5.56196C6.10224 9.02457 6.53817 9.46777 6.53373 10.0081C6.52935 10.5439 6.08992 10.9798 5.55413 10.9798Z" fill="#1FC7D3"/>
<path d="M11.4144 2.5982L11.4014 2.59814C10.5517 2.59814 9.85465 3.28951 9.84771 4.13929C9.84066 4.99611 10.532 5.69897 11.3888 5.70601L11.4018 5.70607C12.2515 5.70607 12.9485 5.0147 12.9555 4.16493C12.9626 3.30805 12.2713 2.60519 11.4144 2.5982ZM11.4018 5.13199L11.3935 5.13193C10.8532 5.12749 10.4173 4.68429 10.4217 4.14406C10.4262 3.60822 10.8656 3.17228 11.4013 3.17228L11.4096 3.17234C11.9499 3.17678 12.3858 3.61998 12.3814 4.16021C12.377 4.69605 11.9376 5.13199 11.4018 5.13199Z" fill="#1FC7D3"/>
<path d="M15.6376 6.82134L15.6246 6.82129C14.7748 6.82129 14.0778 7.51265 14.0709 8.36243C14.0638 9.21925 14.7552 9.92211 15.612 9.92916L15.625 9.92921C16.4747 9.92921 17.1717 9.23785 17.1787 8.38807C17.1857 7.53119 16.4944 6.82839 15.6376 6.82134ZM15.6249 9.35513L15.6167 9.35507C15.0764 9.35063 14.6404 8.90743 14.6449 8.3672C14.6493 7.83136 15.0887 7.39543 15.6244 7.39543L15.6327 7.39548C16.173 7.39992 16.6089 7.84313 16.6044 8.38335C16.6001 8.91919 16.1607 9.35513 15.6249 9.35513Z" fill="#1FC7D3"/>
<path d="M21.339 2.24022L16.3159 7.27612L16.7224 7.68154L21.7455 2.64563L21.339 2.24022Z" fill="#1FC7D3"/>
<path d="M12.5007 4.84577L12.0947 5.25171L14.5278 7.6848L14.9338 7.27887L12.5007 4.84577Z" fill="#1FC7D3"/>
<path d="M10.3028 4.84494L6.24658 8.90112L6.65252 9.30706L10.7087 5.25088L10.3028 4.84494Z" fill="#1FC7D3"/>
<path d="M20.4697 5.91211V19.9999H23.9999V5.91211H20.4697ZM21.0439 19.4258L21.0438 6.4862H23.4259V19.4258H21.0439Z" fill="#1FC7D3"/>
<path d="M14.98 11.8242V19.9997H18.5102V11.8242H14.98ZM17.9362 19.4256H15.5541V12.3984H17.9362V19.4256Z" fill="#1FC7D3"/>
<path d="M9.48975 11.4023V20.0002H13.02V11.4023H9.48975ZM12.4459 19.426H10.0639V11.9765H12.4459V19.426Z" fill="#1FC7D3"/>
<path d="M4 13.5139V20.0002H7.5302L7.53026 13.5139H4ZM6.95612 19.4261H4.57408V14.0879H6.95612C6.95612 14.0879 6.95612 19.4261 6.95612 19.4261Z" fill="#1FC7D3"/>
</g>
<defs>
<filter id="filter0_d" x="0" y="0" width="28" height="28" filterUnits="userSpaceOnUse" color-interpolation-filters="sRGB">
<feFlood flood-opacity="0" result="BackgroundImageFix"/>
<feColorMatrix in="SourceAlpha" type="matrix" values="0 0 0 0 0 0 0 0 0 0 0 0 0 0 0 0 0 0 127 0"/>
<feOffset dy="4"/>
<feGaussianBlur stdDeviation="2"/>
<feColorMatrix type="matrix" values="0 0 0 0 0 0 0 0 0 0 0 0 0 0 0 0 0 0 0.25 0"/>
<feBlend mode="normal" in2="BackgroundImageFix" result="effect1_dropShadow"/>
<feBlend mode="normal" in="SourceGraphic" in2="effect1_dropShadow" result="shape"/>
</filter>
<clipPath id="clip0">
<rect width="20" height="20" fill="white" transform="translate(4)"/>
</clipPath>
</defs>
</svg>
