<svg width="20" height="22" viewBox="0 0 20 22" fill="none" xmlns="http://www.w3.org/2000/svg">
<g clip-path="url(#clip0)">
<path d="M19.871 13.1066L11.042 3.16116C10.768 2.85234 10.398 2.68213 10 2.68213C9.603 2.68213 9.233 2.85234 8.958 3.16116L0.129001 13.1066C-0.0559986 13.3155 -0.0399986 13.6376 0.164001 13.8262C0.260001 13.9148 0.380001 13.9576 0.499001 13.9576C0.635001 13.9576 0.771001 13.9016 0.870001 13.7895L2.999 11.3913V19.5633C2.999 20.4062 3.672 21.0921 4.499 21.0921H15.499C16.326 21.0921 16.999 20.4062 16.999 19.5633V11.3913L19.128 13.7895C19.313 13.9984 19.629 14.0147 19.834 13.8251C20.039 13.6356 20.055 13.3145 19.869 13.1056L19.871 13.1066ZM12 20.0729H8V15.4865C8 15.2052 8.224 14.9768 8.5 14.9768H11.5C11.776 14.9768 12 15.2052 12 15.4865V20.0729ZM16 19.5633C16 19.8446 15.776 20.0729 15.5 20.0729H13V15.4865C13 14.6436 12.327 13.9576 11.5 13.9576H8.5C7.673 13.9576 7 14.6436 7 15.4865V20.0729H4.5C4.224 20.0729 4 19.8446 4 19.5633V10.265L9.7 3.84403C9.782 3.75128 9.889 3.70032 10 3.70032C10.111 3.70032 10.218 3.75128 10.3 3.84403L16 10.265V19.5633Z" fill="#1FC7D3"/>
</g>
<defs>
<clipPath id="clip0">
<rect width="20" height="20.3842" fill="white" transform="translate(0 0.708008)"/>
</clipPath>
</defs>
</svg>
