<svg width="20" height="20" viewBox="0 0 20 20" fill="none" xmlns="http://www.w3.org/2000/svg">
<g clip-path="url(#clip0)">
<path d="M16.3495 20.0003H3.68282C3.49876 20.0003 3.34961 19.8511 3.34961 19.6669V4.33346C3.34961 4.14921 3.49876 4.00024 3.68282 4.00024H16.3495C16.5336 4.00024 16.6829 4.14921 16.6829 4.33346V19.6669C16.6829 19.8511 16.5336 20.0003 16.3495 20.0003ZM4.01623 19.3334H16.0163V4.66686H4.01623V19.3334Z" fill="#1FC7D3"/>
<path d="M16.3495 4.66671H3.68278C3.5672 4.66671 3.46 4.60682 3.39935 4.50859C3.3387 4.41017 3.33317 4.28753 3.38466 4.18434L4.31011 2.33326L3.38466 0.482368C3.33317 0.379181 3.3387 0.256538 3.39935 0.158119C3.4602 0.0598907 3.5672 0 3.68278 0H16.3495C16.4651 0 16.5725 0.0598907 16.6331 0.158119C16.6938 0.256348 16.6993 0.379181 16.6476 0.482368L15.7223 2.33326L16.6476 4.18434C16.6993 4.28734 16.6938 4.41017 16.6331 4.50859C16.5723 4.60682 16.4651 4.66671 16.3495 4.66671ZM4.22237 4.00009H15.8103L15.0515 2.48241C15.0046 2.38857 15.0046 2.27795 15.0515 2.1843L15.8101 0.666618H4.22237L4.98112 2.1843C5.02785 2.27795 5.02785 2.38857 4.98112 2.48241L4.22237 4.00009Z" fill="#1FC7D3"/>
<path d="M6.34944 7.66661C5.79803 7.66661 5.34961 7.21819 5.34961 6.66677C5.34961 6.11536 5.79803 5.66675 6.34944 5.66675C6.90085 5.66675 7.34946 6.11536 7.34946 6.66677C7.34946 7.21819 6.90085 7.66661 6.34944 7.66661ZM6.34944 6.33337C6.16576 6.33337 6.01623 6.48271 6.01623 6.66677C6.01623 6.85064 6.16576 6.99999 6.34944 6.99999C6.53331 6.99999 6.68284 6.85064 6.68284 6.66677C6.68284 6.48271 6.53331 6.33337 6.34944 6.33337Z" fill="#1FC7D3"/>
<path d="M13.6831 7.66661C13.1317 7.66661 12.6831 7.21819 12.6831 6.66677C12.6831 6.11536 13.1317 5.66675 13.6831 5.66675C14.2346 5.66675 14.6832 6.11536 14.6832 6.66677C14.6832 7.21819 14.2346 7.66661 13.6831 7.66661ZM13.6831 6.33337C13.4995 6.33337 13.3499 6.48271 13.3499 6.66677C13.3499 6.85064 13.4995 6.99999 13.6831 6.99999C13.867 6.99999 14.0166 6.85064 14.0166 6.66677C14.0166 6.48271 13.867 6.33337 13.6831 6.33337Z" fill="#1FC7D3"/>
<path d="M10.016 11.0003C7.81054 11.0003 6.01611 9.20606 6.01611 7.00021C6.01611 6.81596 6.16527 6.66699 6.34933 6.66699C6.53358 6.66699 6.68273 6.81596 6.68273 7.00021C6.68273 8.83813 8.1779 10.3335 10.016 10.3335C11.8541 10.3335 13.3495 8.83813 13.3495 7.00021C13.3495 6.81596 13.4986 6.66699 13.6827 6.66699C13.8667 6.66699 14.0161 6.81596 14.0161 7.00021C14.0161 9.20606 12.2217 11.0003 10.016 11.0003Z" fill="#1FC7D3"/>
<path d="M10.0163 19.0001C7.99451 19.0001 6.34961 17.3552 6.34961 15.3334C6.34961 13.3116 7.99451 11.6667 10.0163 11.6667C12.0383 11.6667 13.683 13.3116 13.683 15.3334C13.683 17.3552 12.0383 19.0001 10.0163 19.0001ZM10.0163 12.3334C8.36224 12.3334 7.01642 13.679 7.01642 15.3334C7.01642 16.9877 8.36224 18.3333 10.0163 18.3333C11.6705 18.3333 13.0164 16.9877 13.0164 15.3334C13.0164 13.679 11.6705 12.3334 10.0163 12.3334Z" fill="#1FC7D3"/>
<path d="M9.05518 13.7789C9.05518 13.7512 9.07349 13.7329 9.10095 13.7329H10.2604C10.9204 13.7329 11.232 14.0627 11.232 14.5624C11.232 14.9153 11.067 15.1167 10.87 15.2222V15.2313C11.0625 15.3049 11.287 15.5523 11.287 15.9325C11.287 16.5512 10.8975 16.8491 10.2147 16.8491H9.10095C9.07349 16.8491 9.05518 16.8308 9.05518 16.8032V13.7789ZM10.2467 15.0297C10.5217 15.0297 10.6911 14.8647 10.6911 14.6219C10.6911 14.3744 10.5217 14.2094 10.2467 14.2094H9.62337C9.60506 14.2094 9.59591 14.2185 9.59591 14.2368V15.0024C9.59591 15.0208 9.60506 15.0297 9.62337 15.0297H10.2467ZM9.62337 16.3727H10.2742C10.5769 16.3727 10.7462 16.1983 10.7462 15.937C10.7462 15.6805 10.5769 15.5064 10.2742 15.5064H9.62337C9.60506 15.5064 9.59591 15.5155 9.59591 15.534V16.3448C9.59591 16.3635 9.60506 16.3727 9.62337 16.3727V16.3727Z" fill="#1FC7D3"/>
<path d="M9.84981 13.9999C9.75769 13.9999 9.68311 13.9253 9.68311 13.8334V13.5C9.68311 13.4078 9.75769 13.3333 9.84981 13.3333C9.94175 13.3333 10.0163 13.4078 10.0163 13.5V13.8334C10.0163 13.9253 9.94175 13.9999 9.84981 13.9999Z" fill="#1FC7D3"/>
<path d="M9.84981 17.3333C9.75769 17.3333 9.68311 17.2587 9.68311 17.1666V16.8332C9.68311 16.7411 9.75769 16.6665 9.84981 16.6665C9.94175 16.6665 10.0163 16.7411 10.0163 16.8332V17.1666C10.0163 17.2587 9.94175 17.3333 9.84981 17.3333Z" fill="#1FC7D3"/>
</g>
<defs>
<clipPath id="clip0">
<rect width="20" height="20" fill="white"/>
</clipPath>
</defs>
</svg>
