<svg width="20" height="20" viewBox="0 0 20 20" fill="none" xmlns="http://www.w3.org/2000/svg">
<path d="M9.84107 11.4177C7.04036 11.4177 4.76172 9.1391 4.76172 6.33839C4.76172 3.53768 7.04036 1.25903 9.84107 1.25903C12.6418 1.25903 14.9204 3.53768 14.9204 6.33839C14.9204 9.1391 12.6418 11.4177 9.84107 11.4177ZM9.84107 1.89391C7.3904 1.89391 5.39677 3.88772 5.39677 6.33839C5.39677 8.78923 7.3904 10.7829 9.84107 10.7829C12.2919 10.7829 14.2856 8.78923 14.2856 6.33839C14.2856 3.88772 12.2919 1.89391 9.84107 1.89391V1.89391Z" fill="#24B4C6"/>
<path d="M9.84131 10.4656C7.56576 10.4656 5.71436 8.61418 5.71436 6.33863C5.71436 4.06307 7.56576 2.21167 9.84131 2.21167C12.1169 2.21167 13.9685 4.06307 13.9685 6.33863C13.9685 8.61418 12.1169 10.4656 9.84131 10.4656ZM9.84131 2.84654C7.9158 2.84654 6.34941 4.41311 6.34941 6.33863C6.34941 8.26414 7.9158 9.83071 9.84131 9.83071C11.767 9.83071 13.3334 8.26414 13.3334 6.33863C13.3334 4.41311 11.767 2.84654 9.84131 2.84654Z" fill="#24B4C6"/>
<path d="M8.81396 4.58421C8.81396 4.55079 8.83631 4.52881 8.86955 4.52881H10.2739C11.0734 4.52881 11.4507 4.92844 11.4507 5.53353C11.4507 5.96114 11.251 6.2051 11.0123 6.3328V6.34406C11.2456 6.43289 11.5173 6.7328 11.5173 7.19347C11.5173 7.94279 11.0456 8.30355 10.2183 8.30355H8.86955C8.83631 8.30355 8.81396 8.28121 8.81396 8.24815V4.58421ZM10.2574 6.09956C10.5903 6.09956 10.796 5.89992 10.796 5.60565C10.796 5.30592 10.5903 5.10592 10.2574 5.10592H9.50225C9.48027 5.10592 9.469 5.11718 9.469 5.13916V6.0665C9.469 6.08848 9.48027 6.09956 9.50225 6.09956H10.2574ZM9.50225 7.72626H10.2906C10.657 7.72626 10.8623 7.51518 10.8623 7.19892C10.8623 6.88793 10.657 6.67685 10.2906 6.67685H9.50225C9.48027 6.67685 9.469 6.68811 9.469 6.71027V7.69283C9.469 7.71518 9.48027 7.72626 9.50225 7.72626Z" fill="#24B4C6"/>
<path d="M9.84127 5.06876C9.66579 5.06876 9.52393 4.92671 9.52393 4.75123V4.11636C9.52393 3.94088 9.66579 3.79883 9.84127 3.79883C10.0167 3.79883 10.1588 3.94088 10.1588 4.11636V4.75123C10.1588 4.92671 10.0167 5.06876 9.84127 5.06876Z" fill="#24B4C6"/>
<path d="M9.84127 8.87818C9.66579 8.87818 9.52393 8.73631 9.52393 8.56084V8.24331C9.52393 8.06783 9.66579 7.92578 9.84127 7.92578C10.0167 7.92578 10.1588 8.06783 10.1588 8.24331V8.56084C10.1588 8.73631 10.0167 8.87818 9.84127 8.87818Z" fill="#24B4C6"/>
<path d="M6.34918 18.7196H0.952294C0.776818 18.7196 0.634766 18.5775 0.634766 18.4021V17.6931C0.634766 17.0393 1.23658 16.506 1.98154 16.4936L3.60024 16.2319C3.63366 16.2264 3.66781 16.2264 3.70124 16.2319L5.31994 16.4936C6.0649 16.506 6.66671 17.0393 6.66671 17.6931V18.4021C6.66653 18.5775 6.52466 18.7196 6.34918 18.7196V18.7196ZM1.26982 18.0845H6.03165V17.6931C6.03165 17.3814 5.70014 17.1281 5.29287 17.1281C5.2758 17.1281 5.25909 17.1269 5.24219 17.1241L3.65074 16.8669L2.0591 17.1241C2.04221 17.1269 2.0255 17.1281 2.00842 17.1281C1.60116 17.1281 1.26964 17.3814 1.26964 17.6931V18.0845H1.26982Z" fill="#24B4C6"/>
<path d="M4.51733 16.4974H2.77928C2.29445 16.4974 1.8999 16.1029 1.8999 15.618V14.2293C1.8999 13.3794 2.59127 12.688 3.44122 12.688H3.85539C4.70552 12.688 5.39689 13.3794 5.39689 14.2293V15.618C5.39689 16.1029 5.00216 16.4974 4.51733 16.4974ZM3.44122 13.3229C2.9415 13.3229 2.5346 13.7296 2.5346 14.2293V15.618C2.5346 15.7528 2.64449 15.8625 2.77928 15.8625H4.51715C4.65212 15.8625 4.76183 15.7528 4.76183 15.618V14.2293C4.76183 13.7296 4.35511 13.3229 3.85539 13.3229H3.44122Z" fill="#24B4C6"/>
<path d="M12.6986 18.7196H7.30172C7.12625 18.7196 6.98438 18.5775 6.98438 18.4021V17.6931C6.98438 17.0393 7.58601 16.506 8.33114 16.4936L9.94966 16.2319C9.98326 16.2264 10.0174 16.2264 10.0508 16.2319L11.6694 16.4936C12.4145 16.506 13.0161 17.0393 13.0161 17.6931V18.4021C13.0161 18.5775 12.8741 18.7196 12.6986 18.7196V18.7196ZM7.61925 18.0845H12.3811V17.6931C12.3811 17.3814 12.0497 17.1281 11.6423 17.1281C11.6252 17.1281 11.6085 17.1269 11.5918 17.1241L10.0002 16.8669L8.40853 17.1241C8.39181 17.1269 8.3751 17.1281 8.35803 17.1281C7.95058 17.1281 7.61925 17.3814 7.61925 17.6931V18.0845Z" fill="#24B4C6"/>
<path d="M10.8664 16.4974H9.12858C8.64375 16.4974 8.24902 16.1029 8.24902 15.618V14.2293C8.24902 13.3794 8.94039 12.688 9.79052 12.688H10.2047C11.0548 12.688 11.7462 13.3794 11.7462 14.2293V15.618C11.746 16.1029 11.3513 16.4974 10.8664 16.4974ZM9.79034 13.3229C9.29061 13.3229 8.8839 13.7296 8.8839 14.2293V15.618C8.8839 15.7528 8.99361 15.8625 9.12858 15.8625H10.8664C11.0012 15.8625 11.1109 15.7528 11.1109 15.618V14.2293C11.1109 13.7296 10.7042 13.3229 10.2045 13.3229H9.79034Z" fill="#24B4C6"/>
<path d="M19.0479 18.7196H13.651C13.4755 18.7196 13.3335 18.5775 13.3335 18.4021V17.6931C13.3335 17.0393 13.9353 16.506 14.6803 16.4936L16.299 16.2319C16.3324 16.2264 16.3666 16.2264 16.4 16.2319L18.0187 16.4936C18.7636 16.506 19.3655 17.0393 19.3655 17.6931V18.4021C19.3653 18.5775 19.2234 18.7196 19.0479 18.7196V18.7196ZM13.9686 18.0845H18.7304V17.6931C18.7304 17.3814 18.3989 17.1281 17.9916 17.1281C17.9745 17.1281 17.9578 17.1269 17.9409 17.1241L16.3495 16.8669L14.7578 17.1241C14.7409 17.1269 14.7242 17.1281 14.7072 17.1281C14.2999 17.1281 13.9684 17.3814 13.9684 17.6931V18.0845H13.9686Z" fill="#24B4C6"/>
<path d="M17.2156 16.4974H15.4777C14.9927 16.4974 14.5981 16.1029 14.5981 15.618V14.2293C14.5981 13.3794 15.2895 12.688 16.1395 12.688H16.5538C17.4038 12.688 18.0951 13.3794 18.0951 14.2293V15.618C18.0951 16.1029 17.7004 16.4974 17.2156 16.4974ZM16.1395 13.3229C15.6397 13.3229 15.233 13.7296 15.233 14.2293V15.618C15.233 15.7528 15.3427 15.8625 15.4775 15.8625H17.2154C17.3503 15.8625 17.4601 15.7528 17.4601 15.618V14.2293C17.4601 13.7296 17.0533 13.3229 16.5536 13.3229H16.1395Z" fill="#24B4C6"/>
<path d="M1.21471 14.5925H0V10.4653H1.90481V6.021H5.07937V6.65587H2.53968V11.1004H0.634876V13.9574H1.21471V14.5925Z" fill="#24B4C6"/>
<path d="M19.9998 14.5925H18.8481V13.9574H19.3649V11.1004H17.4601V6.65587H14.9204V6.021H18.0952V10.4653H19.9998V14.5925Z" fill="#24B4C6"/>
</svg>
