<svg width="40" height="46" viewBox="0 0 40 46" fill="none" xmlns="http://www.w3.org/2000/svg">
<path d="M16.4355 45.8584C17.4121 45.8584 18.1689 45.1016 18.1689 44.1494V2.62109C18.1689 1.66895 17.4121 0.912109 16.4355 0.912109C15.459 0.912109 14.7266 1.66895 14.7266 2.62109V44.1494C14.7266 45.1016 15.459 45.8584 16.4355 45.8584ZM30.6445 40.9756C31.6211 40.9756 32.3535 40.1943 32.3535 39.2422V7.52832C32.3535 6.57617 31.6211 5.79492 30.6445 5.79492C29.6436 5.79492 28.9111 6.57617 28.9111 7.52832V39.2422C28.9111 40.1943 29.6436 40.9756 30.6445 40.9756ZM9.33105 37.0205C10.332 37.0205 11.0645 36.2637 11.0645 35.3115V11.459C11.0645 10.5068 10.332 9.75 9.33105 9.75C8.35449 9.75 7.62207 10.5068 7.62207 11.459V35.3115C7.62207 36.2637 8.35449 37.0205 9.33105 37.0205ZM23.54 34.3838C24.5166 34.3838 25.249 33.627 25.249 32.6748V14.0957C25.249 13.1436 24.5166 12.3867 23.54 12.3867C22.5635 12.3867 21.8066 13.1436 21.8066 14.0957V32.6748C21.8066 33.627 22.5635 34.3838 23.54 34.3838ZM37.749 30.0137C38.7256 30.0137 39.458 29.2324 39.458 28.2803V18.4902C39.458 17.5381 38.7256 16.7568 37.749 16.7568C36.748 16.7568 36.0156 17.5381 36.0156 18.4902V28.2803C36.0156 29.2324 36.748 30.0137 37.749 30.0137ZM2.25098 28.085C3.22754 28.085 3.95996 27.3281 3.95996 26.376V20.3945C3.95996 19.4424 3.22754 18.6855 2.25098 18.6855C1.25 18.6855 0.517578 19.4424 0.517578 20.3945V26.376C0.517578 27.3281 1.25 28.085 2.25098 28.085Z" fill="url(#paint0_linear)"/>
<defs>
<linearGradient id="paint0_linear" x1="-5" y1="-2" x2="-5" y2="48" gradientUnits="userSpaceOnUse">
<stop stop-color="#FF3244"/>
<stop offset="1" stop-color="#FF9371"/>
</linearGradient>
</defs>
</svg>
