<svg width="190" height="39" viewBox="0 0 190 39" fill="none" xmlns="http://www.w3.org/2000/svg">
<path d="M5.20187 29.5626H0V0.00708008H5.24416L15.3519 13.8137L24.9943 0.00708008H29.9002V29.5626H24.7406V8.19819L15.3941 21.3293H14.6329L5.20187 8.32486V29.5626Z" fill="white"/>
<path d="M49.539 10.5626H55.0792L47.5936 29.5626C46.2403 32.856 45.0279 35.0797 43.9565 36.2337C42.9133 37.416 41.6728 38.0071 40.2348 38.0071C38.8815 38.0071 37.5141 37.5145 36.1326 36.5293L37.6973 32.856C38.4304 33.3063 39.093 33.5315 39.6851 33.5315C40.841 33.5315 41.8137 32.5463 42.6032 30.576L43.0261 29.5626L34.2294 10.5626H40.0657L44.5063 20.9493C44.5627 21.09 44.8728 22.0049 45.4367 23.6937C45.6059 22.6523 45.8314 21.7234 46.1134 20.9071L49.539 10.5626Z" fill="white"/>
<path d="M62.8579 29.5626H57.9944V10.5626H62.8579V12.4626C64.2676 10.9708 66.0861 10.2249 68.3135 10.2249C73.5295 10.2249 76.1375 12.9552 76.1375 18.416V29.5626H71.2739V19.2604C71.2739 16.2767 69.8501 14.7849 67.0025 14.7849C65.4518 14.7849 64.0702 15.39 62.8579 16.6004V29.5626Z" fill="white"/>
<path d="M82.5615 15.4604L81.335 11.9137C83.3932 10.7034 85.6347 10.0982 88.0594 10.0982C90.7097 10.0982 92.641 10.7456 93.8533 12.0404C95.0657 13.3352 95.6719 15.3197 95.6719 17.9937V29.5626H91.4427V27.3671C90.3149 28.9997 88.44 29.816 85.8179 29.816C84.0135 29.816 82.5615 29.2952 81.4619 28.2537C80.3905 27.1841 79.8548 25.7626 79.8548 23.9893C79.8548 22.0189 80.4892 20.4989 81.7579 19.4293C83.0267 18.3597 84.7043 17.8249 86.7906 17.8249C88.5105 17.8249 89.9484 18.233 91.1044 19.0493C91.1608 17.3604 90.907 16.1219 90.3431 15.3337C89.8074 14.5456 88.877 14.1515 87.5519 14.1515C86.0858 14.1515 84.4223 14.5878 82.5615 15.4604ZM87.425 25.7204C89.0603 25.7204 90.2867 25.1434 91.1044 23.9893V22.0471C90.3149 21.4278 89.2013 21.1182 87.7633 21.1182C86.8611 21.1182 86.1281 21.3293 85.5642 21.7515C85.0003 22.1737 84.7183 22.7508 84.7183 23.4826C84.7183 24.1582 84.9721 24.7071 85.4796 25.1293C85.9871 25.5234 86.6356 25.7204 87.425 25.7204Z" fill="white"/>
<path d="M129.539 29.5626H111.015V0.00708008H116.217V24.7071H129.539V29.5626Z" fill="white"/>
<path d="M134.228 15.4604L133.002 11.9137C135.06 10.7034 137.301 10.0982 139.726 10.0982C142.376 10.0982 144.308 10.7456 145.52 12.0404C146.732 13.3352 147.339 15.3197 147.339 17.9937V29.5626H143.11V27.3671C141.982 28.9997 140.107 29.816 137.485 29.816C135.68 29.816 134.228 29.2952 133.129 28.2537C132.057 27.1841 131.522 25.7626 131.522 23.9893C131.522 22.0189 132.156 20.4989 133.425 19.4293C134.693 18.3597 136.371 17.8249 138.457 17.8249C140.177 17.8249 141.615 18.233 142.771 19.0493C142.828 17.3604 142.574 16.1219 142.01 15.3337C141.474 14.5456 140.544 14.1515 139.219 14.1515C137.753 14.1515 136.089 14.5878 134.228 15.4604ZM139.092 25.7204C140.727 25.7204 141.954 25.1434 142.771 23.9893V22.0471C141.982 21.4278 140.868 21.1182 139.43 21.1182C138.528 21.1182 137.795 21.3293 137.231 21.7515C136.667 22.1737 136.385 22.7508 136.385 23.4826C136.385 24.1582 136.639 24.7071 137.146 25.1293C137.654 25.5234 138.302 25.7204 139.092 25.7204Z" fill="white"/>
<path d="M152.324 27.916V0.00708008H157.188V11.7449C158.57 10.6471 160.247 10.0982 162.221 10.0982C165.012 10.0982 167.211 10.9989 168.818 12.8004C170.453 14.5456 171.271 16.8678 171.271 19.7671C171.271 22.8915 170.284 25.3826 168.311 27.2404C166.365 29.0982 163.729 30.0271 160.402 30.0271C158.936 30.0271 157.456 29.83 155.962 29.436C154.495 29.0419 153.283 28.5352 152.324 27.916ZM161.079 14.6582C159.528 14.6582 158.231 15.2634 157.188 16.4737V24.5382C158.231 25.1856 159.387 25.5093 160.656 25.5093C162.263 25.5093 163.56 25.0308 164.547 24.0737C165.562 23.0886 166.069 21.7656 166.069 20.1049C166.069 18.3878 165.604 17.0508 164.674 16.0937C163.743 15.1367 162.545 14.6582 161.079 14.6582Z" fill="white"/>
<path d="M174.86 15.8826C174.86 14.1093 175.508 12.7019 176.805 11.6604C178.102 10.6189 179.78 10.0982 181.838 10.0982C184.939 10.0982 187.35 10.9004 189.07 12.5049L187.251 15.9671C185.7 14.7567 183.98 14.1515 182.091 14.1515C181.415 14.1515 180.851 14.3204 180.4 14.6582C179.949 14.9678 179.723 15.3478 179.723 15.7982C179.723 16.7271 180.921 17.5012 183.318 18.1204C184.192 18.3174 184.967 18.5426 185.644 18.796C186.321 19.0212 187.011 19.3589 187.716 19.8093C188.449 20.2315 189.013 20.7945 189.408 21.4982C189.803 22.2019 190 23.0182 190 23.9471C190 25.8049 189.295 27.2826 187.885 28.3804C186.504 29.4782 184.643 30.0271 182.303 30.0271C180.639 30.0271 179.018 29.6752 177.439 28.9715C175.832 28.2397 174.803 27.5078 174.352 26.776L176.72 23.6093C177.256 24.2567 178.144 24.8056 179.385 25.256C180.654 25.7345 181.739 25.9737 182.641 25.9737C183.741 26.0863 184.516 25.7345 184.967 24.9182C185.418 24.0737 185.122 23.3841 184.079 22.8493C183.656 22.6241 182.994 22.3849 182.091 22.1315C181.217 21.8782 180.4 21.6249 179.639 21.3715C178.906 21.09 178.144 20.7382 177.355 20.316C176.594 19.8937 175.987 19.3167 175.536 18.5849C175.085 17.8249 174.86 16.9241 174.86 15.8826Z" fill="white"/>
</svg>
