<svg width="47" height="80" viewBox="0 0 47 80" fill="none" xmlns="http://www.w3.org/2000/svg">
<path d="M46.9865 50.6356C47.2112 58.5065 44.6275 66.3774 39.2354 74.2482C33.8433 82.1191 28.2546 81.9119 22.4694 73.6268C16.6841 65.3417 10.9831 59.5076 5.36633 56.1245C-0.250429 52.7414 -1.45803 47.7013 1.74352 41.0042C4.94507 34.3071 6.04034 24.8137 5.02933 12.5241C4.01831 0.234534 7.64112 -3.01047 15.8978 2.78911C24.1544 8.58869 30.1643 13.4217 33.9276 17.2881C37.6908 21.1544 40.7519 25.7113 43.111 30.9585C45.47 36.2057 46.7619 42.7648 46.9865 50.6356Z" fill="url(#paint0_linear)"/>
<defs>
<linearGradient id="paint0_linear" x1="0" y1="0" x2="0" y2="80" gradientUnits="userSpaceOnUse">
<stop stop-color="#FF5F6D"/>
<stop offset="1" stop-color="#FFC371"/>
</linearGradient>
</defs>
</svg>
