<svg width="130" height="65" viewBox="0 0 130 65" fill="none" xmlns="http://www.w3.org/2000/svg">
<rect width="130" height="65" rx="10" fill="#82BA30"/>
<path fill-rule="evenodd" clip-rule="evenodd" d="M20.1106 22.0928C20.1106 22.0928 22.6101 18.303 27.6008 17.9109V16.536C27.7631 16.5232 27.9254 16.5124 28.0885 16.5067C34.3731 16.289 38.468 21.8035 38.468 21.8035C38.468 21.8035 33.7649 27.6804 28.8651 27.6804C28.4161 27.6804 27.9957 27.6376 27.6008 27.5657V26.2274C25.2234 25.4065 24.4505 22.5541 24.4505 22.5541C24.4505 22.5541 25.8294 20.8597 27.5944 21.0773C27.5954 21.0773 27.5963 21.0775 27.5973 21.0777C27.5983 21.0779 27.5994 21.0781 27.6007 21.0781V26.2273C27.9995 26.365 28.4425 26.4466 28.9367 26.4466C32.3703 26.4466 35.5727 21.8762 35.5727 21.8762C35.5727 21.8762 32.6078 17.7394 28.0885 17.8853C27.9233 17.8906 27.7614 17.8995 27.6008 17.9111V19.6094C27.8965 19.5768 28.1976 19.5541 28.5124 19.5542C31.4072 19.5542 33.1245 21.8687 33.1245 21.8687L30.7719 23.9071C30.7058 23.7938 30.6424 23.6845 30.5812 23.579C29.6644 21.9976 29.2501 21.2829 27.6008 21.078V19.6095C24.2379 19.9833 22.2131 22.2884 22.2131 22.2884C22.2131 22.2884 23.3837 26.7932 27.6008 27.5659V29.1339C22.021 28.4125 20.1106 22.0928 20.1106 22.0928ZM27.6008 29.1339C27.9501 29.18 28.3018 29.2033 28.6539 29.2037C33.2134 29.2037 36.5108 26.8108 39.7036 23.9786C39.939 24.1723 40.4983 24.4895 41.0861 24.8228L41.0861 24.8229C41.8201 25.2391 42.5983 25.6805 42.8457 25.938C39.8099 28.55 32.7348 30.6555 28.7238 30.6555C28.3371 30.6555 27.9658 30.6314 27.6008 30.5952V29.1339ZM27.6008 14V16.536C22.073 16.9922 17.286 21.8035 17.286 21.8035C17.286 21.8035 19.9973 29.8578 27.6008 30.5953V32.7988H44.9314V14H27.6008ZM106.749 20.5672L108.816 26.0206H104.617L106.749 20.5672ZM104.535 18.4438L99.7702 30.0833H103.134L103.888 28.0264H109.526L110.239 30.0833H113.891L109.092 18.4423L104.535 18.4438ZM94.9695 30.0876H98.3827V18.4402L94.9689 18.4394L94.9695 30.0876ZM71.2745 18.4394L68.4268 27.6709L65.6989 18.4402L62.0161 18.4394L65.9121 30.0876H70.8294L74.7568 18.4394H71.2745ZM85.0711 20.9758H86.5382C88.6663 20.9758 90.0429 21.8971 90.0429 24.288C90.0429 26.6793 88.6663 27.6008 86.5382 27.6008H85.0711V20.9758ZM81.6866 18.4394V30.0876H87.2198C90.168 30.0876 91.1308 29.6151 92.1718 28.5552C92.907 27.8109 93.3826 26.1772 93.3826 24.3918C93.3826 22.754 92.9801 21.294 92.2785 20.3844C91.0144 18.7577 89.1932 18.4394 86.475 18.4394H81.6866ZM49.3545 18.4233V30.0876H52.7966V21.2308L55.4636 21.2316C56.3467 21.2316 56.9762 21.4439 57.4015 21.8818C57.9409 22.4358 58.1611 23.33 58.1611 24.9659V30.0876H61.4965V23.643C61.4965 19.0434 58.4561 18.4233 55.4812 18.4233H49.3545ZM76.1933 18.4394L76.1947 30.0876H79.6063V18.4394H76.1933ZM30.9248 47.2661H29.8499C29.6807 47.9926 29.1831 48.4903 28.3969 48.4903C27.9689 48.4903 27.6106 48.331 27.3519 48.0524C26.9936 47.6742 26.9239 47.2462 26.9239 45.8429C26.9239 44.4397 26.9936 44.0117 27.3519 43.6335C27.6106 43.3549 27.9689 43.1956 28.3969 43.1956C29.1831 43.1956 29.6708 43.6932 29.83 44.4198H30.9248C30.676 43.0165 29.7006 42.2402 28.3969 42.2402C27.6206 42.2402 27.0234 42.499 26.5656 42.9568C25.8789 43.6534 25.8491 44.36 25.8491 45.8429C25.8491 47.3258 25.8789 48.0325 26.5656 48.7291C27.0234 49.1869 27.6206 49.4457 28.3969 49.4457C29.6907 49.4457 30.676 48.6694 30.9248 47.2661ZM17.0749 42.2999V49.386H16V42.2999H17.0749ZM24.2599 42.2999V49.386H23.2746L20.0003 44.3999V49.386H18.9254V42.2999H19.9107L23.185 47.2761V42.2999H24.2599ZM36.8855 48.4206V49.386H32.3572V42.2999H36.8855V43.2653H33.432V45.3354H36.3779V46.2908H33.432V48.4206H36.8855ZM43.3101 44.4496C43.3101 43.2155 42.4244 42.2999 41.041 42.2999H38.3539V49.386H39.4287V46.5894H41.041C42.4244 46.5894 43.3101 45.6837 43.3101 44.4496ZM42.2353 44.4496C42.2353 45.196 41.7376 45.6339 40.9813 45.6339H39.4287V43.2653H40.9813C41.7376 43.2653 42.2353 43.6932 42.2353 44.4496ZM48.9135 42.2999V43.2653H46.9629V49.386H45.888V43.2653H43.9373V42.2999H48.9135ZM51.2082 42.2999H50.1334V49.386H51.2082V42.2999ZM57.1791 42.9568C57.8757 43.6534 57.8956 44.36 57.8956 45.8429C57.8956 47.3258 57.8757 48.0325 57.1791 48.7291C56.7213 49.1869 56.1241 49.4457 55.3478 49.4457C54.5716 49.4457 53.9744 49.1869 53.5166 48.7291C52.82 48.0325 52.8 47.3258 52.8 45.8429C52.8 44.36 52.82 43.6534 53.5166 42.9568C53.9744 42.499 54.5716 42.2402 55.3478 42.2402C56.1241 42.2402 56.7213 42.499 57.1791 42.9568ZM56.4028 48.0424C56.7611 47.6742 56.8208 47.2462 56.8208 45.8429C56.8208 44.4397 56.7611 44.0018 56.4028 43.6335C56.1341 43.3549 55.7758 43.1956 55.3478 43.1956C54.9199 43.1956 54.5616 43.3549 54.2929 43.6335C53.9446 44.0117 53.8749 44.4397 53.8749 45.8429C53.8749 47.2462 53.9446 47.6642 54.2929 48.0424C54.5616 48.3211 54.9199 48.4903 55.3478 48.4903C55.7758 48.4903 56.1341 48.3211 56.4028 48.0424ZM64.8273 42.2999H63.7524V47.2761L60.4781 42.2999H59.4928V49.386H60.5677V44.3999L63.842 49.386H64.8273V42.2999ZM71.7532 42.2999C73.1366 42.2999 74.0224 43.2155 74.0224 44.4496C74.0224 45.6837 73.1366 46.5894 71.7532 46.5894H70.141V49.386H69.0661V42.2999H71.7532ZM71.6935 45.6339C72.4499 45.6339 72.9475 45.196 72.9475 44.4496C72.9475 43.6932 72.4499 43.2653 71.6935 43.2653H70.141V45.6339H71.6935ZM80.4905 49.386L78.8583 46.251C79.6545 46.032 80.2715 45.3851 80.2715 44.37C80.2715 43.1658 79.4156 42.2999 78.072 42.2999H75.3252V49.386H76.4001V46.4003H77.7436L79.2365 49.386H80.4905ZM79.1967 44.3799C79.1967 45.0766 78.709 45.4847 77.9924 45.4847H76.4001V43.2653H77.9924C78.709 43.2653 79.1967 43.6833 79.1967 44.3799ZM85.8698 42.9568C86.5664 43.6534 86.5863 44.36 86.5863 45.8429C86.5863 47.3258 86.5664 48.0325 85.8698 48.7291C85.412 49.1869 84.8148 49.4457 84.0385 49.4457C83.2623 49.4457 82.6651 49.1869 82.2073 48.7291C81.5106 48.0325 81.4907 47.3258 81.4907 45.8429C81.4907 44.36 81.5106 43.6534 82.2073 42.9568C82.6651 42.499 83.2623 42.2402 84.0385 42.2402C84.8148 42.2402 85.412 42.499 85.8698 42.9568ZM85.0935 48.0424C85.4518 47.6742 85.5115 47.2462 85.5115 45.8429C85.5115 44.4397 85.4518 44.0018 85.0935 43.6335C84.8248 43.3549 84.4665 43.1956 84.0385 43.1956C83.6106 43.1956 83.2523 43.3549 82.9836 43.6335C82.6353 44.0117 82.5656 44.4397 82.5656 45.8429C82.5656 47.2462 82.6353 47.6642 82.9836 48.0424C83.2523 48.3211 83.6106 48.4903 84.0385 48.4903C84.4665 48.4903 84.8248 48.3211 85.0935 48.0424ZM93.0602 46.6391V45.5543H90.4726V46.4699H91.9853V46.868C91.9853 47.3258 91.8957 47.6841 91.637 47.9827C91.3583 48.3111 90.9403 48.4903 90.4726 48.4903C90.0446 48.4903 89.6863 48.331 89.4176 48.0524C89.0693 47.6742 88.9996 47.2462 88.9996 45.8429C88.9996 44.4397 89.0693 44.0117 89.4176 43.6335C89.6863 43.3549 90.0446 43.1956 90.4726 43.1956C91.2687 43.1956 91.7863 43.6534 91.9654 44.4297H93.0403C92.8512 43.2255 91.9654 42.2402 90.4726 42.2402C89.6963 42.2402 89.0991 42.499 88.6413 42.9568C87.9546 43.6534 87.9248 44.36 87.9248 45.8429C87.9248 47.3258 87.9546 48.0325 88.6413 48.7291C89.0991 49.1869 89.6963 49.4457 90.4726 49.4457C91.219 49.4457 91.8957 49.1969 92.4232 48.6395C92.891 48.132 93.0602 47.5647 93.0602 46.6391ZM98.1798 46.251L99.812 49.386H98.558L97.0651 46.4003H95.7216V49.386H94.6467V42.2999H97.3936C98.7371 42.2999 99.593 43.1658 99.593 44.37C99.593 45.3851 98.976 46.032 98.1798 46.251ZM97.3139 45.4847C98.0305 45.4847 98.5182 45.0766 98.5182 44.3799C98.5182 43.6833 98.0305 43.2653 97.3139 43.2653H95.7216V45.4847H97.3139ZM103.786 42.2999H102.92L100.322 49.386H101.467L101.954 47.9628H104.751L105.239 49.386H106.383L103.786 42.2999ZM104.452 47.0472H102.273L103.378 43.9022L104.452 47.0472ZM112.564 42.2999H113.638V49.386H112.564V44.6487L110.931 48.1021H110.135L108.463 44.6487V49.386H107.388V42.2999H108.463L110.533 46.7088L112.564 42.2999Z" fill="white"/>
</svg>
