<svg width="28" height="44" viewBox="0 0 28 44" fill="none" xmlns="http://www.w3.org/2000/svg">
<path d="M6.43262 43.8906H21.6289C24.9717 43.8906 27.207 41.7578 27.207 38.5586V5.80762C27.207 2.6084 24.9717 0.475586 21.6289 0.475586H6.43262C3.08984 0.475586 0.854492 2.6084 0.854492 5.80762V38.5586C0.854492 41.7578 3.08984 43.8906 6.43262 43.8906ZM6.86328 40.5889C5.12012 40.5889 4.15625 39.666 4.15625 38.0254V6.34082C4.15625 4.7002 5.12012 3.77734 6.86328 3.77734H7.68359V4.7207C7.68359 5.58203 8.2373 6.15625 9.09863 6.15625H19.0039C19.8447 6.15625 20.3984 5.58203 20.3984 4.7207V3.77734H21.2188C22.9414 3.77734 23.9053 4.7002 23.9053 6.34082V38.0254C23.9053 39.666 22.9414 40.5889 21.2188 40.5889H6.86328ZM8.64746 39.0918H19.4551C20.0088 39.0918 20.3984 38.7021 20.3984 38.1279C20.3984 37.5537 20.0088 37.1846 19.4551 37.1846H8.64746C8.09375 37.1846 7.68359 37.5537 7.68359 38.1279C7.68359 38.7021 8.09375 39.0918 8.64746 39.0918Z" fill="url(#paint3_linear)"/>
<defs>
<linearGradient id="paint3_linear" x1="-7" y1="-3" x2="-7" y2="47" gradientUnits="userSpaceOnUse">
<stop stop-color="#FF9BE9"/>
<stop offset="1" stop-color="#FF003D"/>
</linearGradient>
</defs>
</svg>
