<svg width="31" height="26" viewBox="0 0 31 26" fill="none" xmlns="http://www.w3.org/2000/svg">
<path d="M31 12.6875C31 12.1406 30.7656 11.5781 30.375 11.2031L20.1562 0.984375C19.7188 0.546875 19.2188 0.34375 18.7188 0.34375C17.5625 0.34375 16.75 1.17188 16.75 2.25C16.75 2.84375 17 3.3125 17.3594 3.6875L20.9062 7.25L24.8594 10.875L21.3438 10.6875H3.04688C1.8125 10.6875 0.984375 11.5 0.984375 12.6875C0.984375 13.875 1.8125 14.6875 3.04688 14.6875H21.3438L24.8594 14.4844L20.9062 18.125L17.3594 21.6719C17 22.0469 16.75 22.5156 16.75 23.1094C16.75 24.2031 17.5625 25.0156 18.7188 25.0156C19.2188 25.0156 19.7031 24.8125 20.125 24.3906L30.375 14.1719C30.7656 13.7812 31 13.2344 31 12.6875Z" fill="black"/>
</svg>
